<svg xmlns="http://www.w3.org/2000/svg" width="999.56" height="385.61" viewBox="0 0 999.56 385.61"><title>custom-chart</title><g id="Layer_2" data-name="Layer 2"><g id="Layer_1-2" data-name="Layer 1"><circle cx="172.12" cy="172.12" r="172.12" fill="#f0c72f"/><circle cx="172.12" cy="172.12" r="83.81" fill="none" stroke="#6f6fb0" stroke-miterlimit="10" stroke-width="3"/><circle cx="396.95" cy="172.12" r="21.02" fill="#f0c72f"/><circle cx="469.87" cy="172.12" r="21.02" fill="#f0c72f"/><circle cx="538.87" cy="172.12" r="16.73" fill="#f0c72f"/><circle cx="614.92" cy="172.12" r="16.73" fill="#f0c72f"/><circle cx="861.45" cy="172.12" r="6.08" fill="#f0c72f"/><circle cx="979.68" cy="172.12" r="4.3" fill="#f0c72f"/><circle cx="396.95" cy="172.12" r="8.88" fill="none" stroke="#6f6fb0" stroke-miterlimit="10" stroke-width="3"/><circle cx="469.87" cy="172.12" r="7.6" fill="none" stroke="#6f6fb0" stroke-miterlimit="10" stroke-width="3"/><circle cx="538.87" cy="172.12" r="10.07" fill="none" stroke="#6f6fb0" stroke-miterlimit="10" stroke-width="3"/><circle cx="614.92" cy="172.12" r="25.54" fill="none" stroke="#6f6fb0" stroke-miterlimit="10" stroke-width="3"/><circle cx="687.93" cy="172.12" r="11.39" fill="#f0c72f"/><circle cx="687.93" cy="172.12" r="15.32" fill="none" stroke="#6f6fb0" stroke-miterlimit="10" stroke-width="3"/><circle cx="861.45" cy="172.12" r="67.18" fill="none" stroke="#6f6fb0" stroke-miterlimit="10" stroke-width="3"/><circle cx="979.68" cy="172.12" r="16.03" fill="none" stroke="#6f6fb0" stroke-miterlimit="10" stroke-width="3"/><path d="M151.72,374.39v3.06h3.15v1h-3.15v3.21h3.88v1h-5.17v-9.36h5.07l-.15,1Z" fill="#fff"/><path d="M163.41,377.58v5.13h-1.25v-5c0-1.07-.43-1.38-1.13-1.38a2.16,2.16,0,0,0-1.82,1.26v5.08H158v-7.16H159l.11,1.06a2.6,2.6,0,0,1,2.19-1.22A2,2,0,0,1,163.41,377.58Z" fill="#fff"/><path d="M169.95,376.1a1.88,1.88,0,0,1,1.26,1.81,2.44,2.44,0,0,1-2.73,2.43,2.88,2.88,0,0,1-.91-.14.86.86,0,0,0-.35.67c0,.33.2.58.94.58h1.14c1.47,0,2.44.84,2.44,2,0,1.38-1.14,2.17-3.35,2.17s-3.07-.72-3.07-2.17h1.13c0,.81.37,1.2,1.94,1.2s2.09-.39,2.09-1.11-.54-1-1.44-1h-1.13c-1.28,0-1.85-.64-1.85-1.36a1.55,1.55,0,0,1,.79-1.26,2,2,0,0,1-1.21-2,2.55,2.55,0,0,1,2.76-2.5,6.16,6.16,0,0,0,3.27-.64l.37,1.13A7,7,0,0,1,169.95,376.1Zm-3,1.79a1.45,1.45,0,0,0,1.51,1.62,1.42,1.42,0,0,0,1.51-1.63,1.39,1.39,0,0,0-1.53-1.59A1.43,1.43,0,0,0,166.92,377.9Z" fill="#fff"/><path d="M175.3,381.85a1.23,1.23,0,0,0,.46-.08l.33.87a2.43,2.43,0,0,1-1.06.24c-.91,0-1.43-.54-1.43-1.58v-8.62l1.25-.15v8.75C174.85,381.66,175,381.85,175.3,381.85Z" fill="#fff"/><path d="M179.48,373a.88.88,0,1,1-.88-.86A.83.83,0,0,1,179.48,373ZM178,382.72v-7.16h1.25v7.16Z" fill="#fff"/><path d="M186.53,376.21,186,377a3,3,0,0,0-1.85-.65c-.81,0-1.32.37-1.32.94s.38.86,1.53,1.15c1.51.38,2.38,1,2.38,2.23,0,1.49-1.37,2.17-2.82,2.17a4,4,0,0,1-2.7-.94l.69-.79a3,3,0,0,0,2,.72c.94,0,1.53-.42,1.53-1s-.35-1-1.74-1.38c-1.55-.41-2.16-1.07-2.16-2.09s1.1-2,2.58-2A3.8,3.8,0,0,1,186.53,376.21Z" fill="#fff"/><path d="M194.28,377.58v5.13H193v-5c0-1.07-.46-1.38-1.14-1.38a2.19,2.19,0,0,0-1.81,1.25v5.09h-1.25v-10l1.25-.14v4a2.57,2.57,0,0,1,2.12-1.15A2,2,0,0,1,194.28,377.58Z" fill="#fff"/><path d="M374.76,308.11v4h-1.29v-9.36h2.46c2.34,0,3.56.9,3.56,2.65a2.45,2.45,0,0,1-2,2.51l2.53,4.2h-1.53l-2.24-4Zm3.35-2.74c0-1.17-.67-1.64-2.2-1.64h-1.15v3.39h1.3C377.37,307.12,378.12,306.63,378.12,305.37Z" fill="#fff"/><path d="M386.21,312.08l-.1-1.11a2.4,2.4,0,0,1-2.23,1.28,1.91,1.91,0,0,1-2-2.19v-5.13h1.25v5c0,1,.33,1.34,1.1,1.34A2.16,2.16,0,0,0,386,310v-5.11h1.25v7.16Z" fill="#fff"/><path d="M394.58,305.57l-.54.83a3,3,0,0,0-1.85-.65c-.81,0-1.32.37-1.32.94s.38.86,1.53,1.15c1.51.38,2.38,1,2.38,2.23,0,1.49-1.37,2.17-2.82,2.17a4,4,0,0,1-2.7-.94l.69-.79a3,3,0,0,0,2,.72c.94,0,1.53-.42,1.53-1s-.35-1-1.74-1.38c-1.55-.41-2.16-1.07-2.16-2.09s1.1-2,2.58-2A3.8,3.8,0,0,1,394.58,305.57Z" fill="#fff"/><path d="M401.26,305.57l-.54.83a3,3,0,0,0-1.85-.65c-.81,0-1.32.37-1.32.94s.38.86,1.53,1.15c1.51.38,2.38,1,2.38,2.23,0,1.49-1.37,2.17-2.82,2.17a4,4,0,0,1-2.7-.94l.69-.79a3,3,0,0,0,2,.72c.94,0,1.53-.42,1.53-1s-.35-1-1.74-1.38c-1.55-.41-2.16-1.07-2.16-2.09s1.1-2,2.58-2A3.8,3.8,0,0,1,401.26,305.57Z" fill="#fff"/><path d="M405.06,302.34a.88.88,0,1,1-.88-.86A.83.83,0,0,1,405.06,302.34Zm-1.49,9.74v-7.16h1.25v7.16Z" fill="#fff"/><path d="M413.16,311.37l-.29.87a1.44,1.44,0,0,1-1.4-1.07,2.44,2.44,0,0,1-2.13,1.07,2.08,2.08,0,0,1-2.28-2.16c0-1.54,1.15-2.36,3.15-2.36h1.1v-.53c0-1-.5-1.41-1.49-1.41a6.42,6.42,0,0,0-1.93.38l-.31-.91a7,7,0,0,1,2.47-.49c1.72,0,2.51.88,2.51,2.38v3.27C412.56,311,412.79,311.24,413.16,311.37Zm-1.85-1.18v-1.64h-.94c-1.32,0-2,.49-2,1.47a1.13,1.13,0,0,0,1.24,1.29A1.84,1.84,0,0,0,411.31,310.19Z" fill="#fff"/><path d="M420.91,306.95v5.13h-1.25v-5c0-1.07-.43-1.38-1.13-1.38a2.16,2.16,0,0,0-1.82,1.26v5.08h-1.25v-7.16h1.07l.11,1.06a2.6,2.6,0,0,1,2.19-1.22A2,2,0,0,1,420.91,306.95Z" fill="#fff"/><path d="M452.67,258.59l-.76.79a2.94,2.94,0,0,0-2.05-.76c-1.34,0-2.69,1-2.69,3.78s.91,3.79,2.55,3.79a3.49,3.49,0,0,0,1.78-.43v-2.81h-1.66l-.15-1h3.08v4.52a6,6,0,0,1-3.15.83c-2.32,0-3.83-1.62-3.83-4.85s1.93-4.83,4-4.83A4,4,0,0,1,452.67,258.59Z" fill="#fff"/><path d="M460.63,263.93h-4.56c.12,1.66.9,2.29,1.93,2.29a3,3,0,0,0,1.86-.62l.54.75a3.9,3.9,0,0,1-2.5.9c-2,0-3.16-1.4-3.16-3.67s1.13-3.82,3-3.82,2.95,1.34,2.95,3.53C460.66,263.53,460.64,263.77,460.63,263.93Zm-1.21-1c0-1.4-.56-2.17-1.68-2.17-1,0-1.58.67-1.67,2.25h3.35Z" fill="#fff"/><path d="M466.88,259.84l-.23,1.22A2.23,2.23,0,0,0,466,261c-.9,0-1.41.64-1.71,2v4.09h-1.25v-7.16h1.07l.12,1.45a2,2,0,0,1,1.91-1.62A3,3,0,0,1,466.88,259.84Z" fill="#fff"/><path d="M477.77,261.95v5.13h-1.25v-5c0-1.07-.46-1.38-1-1.38-.77,0-1.19.5-1.68,1.26v5.08h-1.25v-5c0-1.07-.46-1.38-1-1.38-.77,0-1.21.5-1.68,1.26v5.08h-1.25v-7.16h1.07l.11,1a2.39,2.39,0,0,1,2.06-1.21,1.8,1.8,0,0,1,1.81,1.29,2.48,2.48,0,0,1,2.13-1.29A1.94,1.94,0,0,1,477.77,261.95Z" fill="#fff"/><path d="M486,266.37l-.29.87a1.44,1.44,0,0,1-1.4-1.07,2.44,2.44,0,0,1-2.13,1.07,2.08,2.08,0,0,1-2.28-2.16c0-1.54,1.15-2.36,3.15-2.36h1.1v-.53c0-1-.5-1.41-1.49-1.41a6.42,6.42,0,0,0-1.93.38l-.31-.91a7,7,0,0,1,2.47-.49c1.73,0,2.51.88,2.51,2.38v3.27C485.44,266,485.67,266.24,486,266.37Zm-1.85-1.18v-1.64h-.94c-1.32,0-2,.49-2,1.47a1.13,1.13,0,0,0,1.24,1.29A1.84,1.84,0,0,0,484.19,265.19Z" fill="#fff"/><path d="M493.8,261.95v5.13h-1.25v-5c0-1.07-.43-1.38-1.13-1.38A2.16,2.16,0,0,0,489.6,262v5.08h-1.25v-7.16h1.07l.11,1.06a2.6,2.6,0,0,1,2.19-1.22A2,2,0,0,1,493.8,261.95Z" fill="#fff"/><path d="M510.14,313.94l-.34-.94a2,2,0,0,0,1.49-2.28v-8h1.29v8.05A2.93,2.93,0,0,1,510.14,313.94Z" fill="#fff"/><path d="M520.93,311.37l-.29.87a1.44,1.44,0,0,1-1.4-1.07,2.44,2.44,0,0,1-2.13,1.07,2.08,2.08,0,0,1-2.28-2.16c0-1.54,1.15-2.36,3.15-2.36h1.1v-.53c0-1-.5-1.41-1.49-1.41a6.42,6.42,0,0,0-1.93.38l-.31-.91a7,7,0,0,1,2.47-.49c1.73,0,2.51.88,2.51,2.38v3.27C520.33,311,520.56,311.24,520.93,311.37Zm-1.85-1.18v-1.64h-.94c-1.32,0-2,.49-2,1.47a1.13,1.13,0,0,0,1.24,1.29A1.84,1.84,0,0,0,519.08,310.19Z" fill="#fff"/><path d="M529.17,308.49c0,2.17-1,3.75-2.81,3.75a2.31,2.31,0,0,1-1.87-.82v3.4l-1.25.15v-10h1.07l.09,1a2.6,2.6,0,0,1,2.12-1.13C528.42,304.76,529.17,306.24,529.17,308.49Zm-1.34,0c0-1.86-.54-2.74-1.62-2.74a2.18,2.18,0,0,0-1.72,1.11v3.49a1.84,1.84,0,0,0,1.58.87C527.2,311.22,527.83,310.37,527.83,308.49Z" fill="#fff"/><path d="M537.06,311.37l-.29.87a1.44,1.44,0,0,1-1.4-1.07,2.44,2.44,0,0,1-2.13,1.07,2.08,2.08,0,0,1-2.28-2.16c0-1.54,1.15-2.36,3.15-2.36h1.1v-.53c0-1-.5-1.41-1.49-1.41a6.41,6.41,0,0,0-1.93.38l-.31-.91a7,7,0,0,1,2.47-.49c1.72,0,2.51.88,2.51,2.38v3.27C536.46,311,536.69,311.24,537.06,311.37Zm-1.85-1.18v-1.64h-.94c-1.32,0-2,.49-2,1.47a1.13,1.13,0,0,0,1.24,1.29A1.84,1.84,0,0,0,535.21,310.19Z" fill="#fff"/><path d="M544.81,306.95v5.13h-1.25v-5c0-1.07-.43-1.38-1.13-1.38a2.16,2.16,0,0,0-1.82,1.26v5.08h-1.25v-7.16h1.07l.11,1.06a2.59,2.59,0,0,1,2.19-1.22A2,2,0,0,1,544.81,306.95Z" fill="#fff"/><path d="M553,308.93h-4.56c.12,1.66.9,2.29,1.93,2.29a3,3,0,0,0,1.86-.62l.54.75a3.9,3.9,0,0,1-2.5.9c-2,0-3.16-1.4-3.16-3.67s1.13-3.82,3-3.82,2.95,1.34,2.95,3.53C553.07,308.53,553.06,308.77,553,308.93Zm-1.21-1c0-1.4-.56-2.17-1.68-2.17-1,0-1.58.67-1.67,2.25h3.35Z" fill="#fff"/><path d="M559.85,305.57l-.54.83a3,3,0,0,0-1.85-.65c-.81,0-1.32.37-1.32.94s.38.86,1.54,1.15c1.51.38,2.38,1,2.38,2.23,0,1.49-1.37,2.17-2.82,2.17a4,4,0,0,1-2.7-.94l.69-.79a3,3,0,0,0,2,.72c.94,0,1.53-.42,1.53-1s-.35-1-1.74-1.38c-1.55-.41-2.16-1.07-2.16-2.09s1.1-2,2.58-2A3.8,3.8,0,0,1,559.85,305.57Z" fill="#fff"/><path d="M567.54,308.93H563c.12,1.66.9,2.29,1.93,2.29a3,3,0,0,0,1.86-.62l.54.75a3.9,3.9,0,0,1-2.5.9c-2,0-3.16-1.4-3.16-3.67s1.13-3.82,3-3.82,2.95,1.34,2.95,3.53C567.56,308.53,567.55,308.77,567.54,308.93Zm-1.21-1c0-1.4-.56-2.17-1.68-2.17-1,0-1.58.67-1.67,2.25h3.35Z" fill="#fff"/><path d="M596.16,258.65l-.73.82a3,3,0,0,0-2.1-.84c-.94,0-1.68.43-1.68,1.33s.37,1.17,2.05,1.68c1.49.46,2.77,1,2.77,2.84,0,1.63-1.24,2.77-3.34,2.77a4.37,4.37,0,0,1-3.18-1.21l.75-.83a3.32,3.32,0,0,0,2.42,1c1.1,0,2-.54,2-1.67,0-.91-.43-1.32-2-1.81-1.82-.56-2.77-1.25-2.77-2.7s1.22-2.44,2.95-2.44A4,4,0,0,1,596.16,258.65Z" fill="#fff"/><path d="M604.57,263.49c0,2.17-1,3.75-2.81,3.75a2.31,2.31,0,0,1-1.87-.82v3.4l-1.25.15v-10h1.07l.09,1a2.6,2.6,0,0,1,2.12-1.13C603.82,259.76,604.57,261.24,604.57,263.49Zm-1.34,0c0-1.86-.54-2.74-1.62-2.74a2.18,2.18,0,0,0-1.72,1.11v3.49a1.84,1.84,0,0,0,1.58.87C602.6,266.22,603.22,265.37,603.22,263.49Z" fill="#fff"/><path d="M612.46,266.37l-.29.87a1.44,1.44,0,0,1-1.4-1.07,2.44,2.44,0,0,1-2.13,1.07,2.08,2.08,0,0,1-2.28-2.16c0-1.54,1.15-2.36,3.15-2.36h1.1v-.53c0-1-.5-1.41-1.49-1.41a6.41,6.41,0,0,0-1.93.38l-.31-.91a7,7,0,0,1,2.47-.49c1.72,0,2.51.88,2.51,2.38v3.27C611.86,266,612.09,266.24,612.46,266.37Zm-1.85-1.18v-1.64h-.94c-1.32,0-2,.49-2,1.47a1.13,1.13,0,0,0,1.24,1.29A1.84,1.84,0,0,0,610.61,265.19Z" fill="#fff"/><path d="M620.21,261.95v5.13H619v-5c0-1.07-.43-1.38-1.13-1.38A2.16,2.16,0,0,0,616,262v5.08h-1.25v-7.16h1.07L616,261a2.6,2.6,0,0,1,2.19-1.22A2,2,0,0,1,620.21,261.95Z" fill="#fff"/><path d="M624.56,257.34a.88.88,0,1,1-.88-.86A.83.83,0,0,1,624.56,257.34Zm-1.49,9.74v-7.16h1.25v7.16Z" fill="#fff"/><path d="M631.61,260.57l-.54.83a3,3,0,0,0-1.85-.65c-.81,0-1.32.37-1.32.94s.38.86,1.54,1.15c1.51.38,2.38,1,2.38,2.23,0,1.49-1.37,2.17-2.82,2.17a4,4,0,0,1-2.7-.94l.69-.79a3,3,0,0,0,2,.72c.94,0,1.53-.42,1.53-1s-.35-1-1.74-1.38c-1.55-.41-2.16-1.07-2.16-2.09s1.1-2,2.58-2A3.8,3.8,0,0,1,631.61,260.57Z" fill="#fff"/><path d="M639.36,261.95v5.13h-1.25v-5c0-1.07-.46-1.38-1.14-1.38a2.19,2.19,0,0,0-1.81,1.25v5.09h-1.25v-10l1.25-.14v4a2.57,2.57,0,0,1,2.12-1.15A2,2,0,0,1,639.36,261.95Z" fill="#fff"/><path d="M669.2,303.75v3.19h3.06v1H669.2v4.12h-1.29v-9.36h5l-.15,1Z" fill="#fff"/><path d="M678.4,304.84l-.23,1.22a2.24,2.24,0,0,0-.62-.08c-.9,0-1.41.64-1.71,2v4.09h-1.25v-7.16h1.07l.12,1.45a2,2,0,0,1,1.92-1.62A3,3,0,0,1,678.4,304.84Z" fill="#fff"/><path d="M685.41,308.93h-4.56c.12,1.66.9,2.29,1.93,2.29a3,3,0,0,0,1.86-.62l.54.75a3.9,3.9,0,0,1-2.5.9c-2,0-3.16-1.4-3.16-3.67s1.13-3.82,3-3.82,2.95,1.34,2.95,3.53C685.43,308.53,685.42,308.77,685.41,308.93Zm-1.21-1c0-1.4-.56-2.17-1.68-2.17-1,0-1.58.67-1.67,2.25h3.35Z" fill="#fff"/><path d="M693.28,306.95v5.13H692v-5c0-1.07-.43-1.38-1.13-1.38a2.16,2.16,0,0,0-1.82,1.26v5.08h-1.25v-7.16h1.07L689,306a2.59,2.59,0,0,1,2.19-1.22A2,2,0,0,1,693.28,306.95Z" fill="#fff"/><path d="M700.93,305.53l-.61.82a2.27,2.27,0,0,0-1.52-.56c-1.13,0-1.83.88-1.83,2.74s.71,2.65,1.83,2.65a2.33,2.33,0,0,0,1.54-.58l.6.86a3.38,3.38,0,0,1-2.19.79c-1.93,0-3.12-1.37-3.12-3.68s1.18-3.8,3.12-3.8A3.18,3.18,0,0,1,700.93,305.53Z" fill="#fff"/><path d="M708.41,306.95v5.13h-1.25v-5c0-1.07-.46-1.38-1.14-1.38a2.19,2.19,0,0,0-1.81,1.25v5.09H703v-10l1.25-.14v4a2.57,2.57,0,0,1,2.12-1.15A2,2,0,0,1,708.41,306.95Z" fill="#fff"/><path d="M723.27,260.62c0,2.15-1.56,3-3.63,3h-1.18v3.44h-1.29v-9.36h2.46C721.88,257.72,723.27,258.65,723.27,260.62Zm-1.37,0c0-1.4-.9-1.9-2.28-1.9h-1.15v3.9h1.13C721,262.63,721.9,262.22,721.9,260.63Z" fill="#fff"/><path d="M730.93,263.49c0,2.21-1.17,3.75-3.19,3.75s-3.19-1.47-3.19-3.73,1.17-3.75,3.21-3.75S730.93,261.23,730.93,263.49Zm-5,0c0,1.86.65,2.73,1.85,2.73s1.85-.87,1.85-2.74-.65-2.73-1.83-2.73S725.89,261.63,725.89,263.51Z" fill="#fff"/><path d="M737.15,259.84l-.23,1.22a2.24,2.24,0,0,0-.62-.08c-.9,0-1.41.64-1.71,2v4.09h-1.25v-7.16h1.07l.12,1.45a2,2,0,0,1,1.92-1.62A3,3,0,0,1,737.15,259.84Z" fill="#fff"/><path d="M741.06,267.24a1.8,1.8,0,0,1-1.93-2v-4.32h-1.25v-1h1.25v-1.62l1.25-.15v1.76h1.7l-.14,1h-1.56v4.26c0,.72.23,1.06.86,1.06a1.74,1.74,0,0,0,1-.31l.48.86A2.73,2.73,0,0,1,741.06,267.24Z" fill="#fff"/><path d="M748.54,267.08l-.09-1.11a2.4,2.4,0,0,1-2.23,1.28,1.91,1.91,0,0,1-2-2.19v-5.13h1.25v5c0,1,.33,1.34,1.1,1.34a2.16,2.16,0,0,0,1.79-1.24v-5.11h1.25v7.16Z" fill="#fff"/><path d="M756.22,260.47a1.88,1.88,0,0,1,1.26,1.81,2.44,2.44,0,0,1-2.73,2.43,2.88,2.88,0,0,1-.91-.14.87.87,0,0,0-.35.67c0,.33.2.58.94.58h1.14c1.47,0,2.45.84,2.45,2,0,1.38-1.14,2.17-3.35,2.17s-3.07-.72-3.07-2.17h1.13c0,.81.37,1.2,1.94,1.2s2.09-.39,2.09-1.11-.54-1-1.44-1h-1.13c-1.28,0-1.85-.64-1.85-1.36a1.55,1.55,0,0,1,.79-1.26,2,2,0,0,1-1.21-2,2.55,2.55,0,0,1,2.76-2.5,6.16,6.16,0,0,0,3.27-.64l.37,1.13A7,7,0,0,1,756.22,260.47Zm-3,1.79a1.45,1.45,0,0,0,1.51,1.62,1.42,1.42,0,0,0,1.51-1.63,1.39,1.39,0,0,0-1.53-1.59A1.43,1.43,0,0,0,753.19,262.26Z" fill="#fff"/><path d="M765.11,263.93h-4.56c.12,1.66.9,2.29,1.93,2.29a3,3,0,0,0,1.86-.62l.54.75a3.9,3.9,0,0,1-2.5.9c-2,0-3.16-1.4-3.16-3.67s1.13-3.82,3-3.82,2.95,1.34,2.95,3.53C765.14,263.53,765.13,263.77,765.11,263.93Zm-1.21-1c0-1.4-.56-2.17-1.68-2.17-1,0-1.58.67-1.67,2.25h3.35Z" fill="#fff"/><path d="M771.92,260.57l-.54.83a3,3,0,0,0-1.85-.65c-.81,0-1.32.37-1.32.94s.38.86,1.54,1.15c1.51.38,2.38,1,2.38,2.23,0,1.49-1.37,2.17-2.82,2.17a4,4,0,0,1-2.7-.94l.69-.79a3,3,0,0,0,2,.72c.94,0,1.53-.42,1.53-1s-.35-1-1.74-1.38c-1.55-.41-2.16-1.07-2.16-2.09s1.1-2,2.58-2A3.8,3.8,0,0,1,771.92,260.57Z" fill="#fff"/><path d="M779.6,263.93H775c.12,1.66.9,2.29,1.93,2.29a3,3,0,0,0,1.86-.62l.54.75a3.9,3.9,0,0,1-2.5.9c-2,0-3.16-1.4-3.16-3.67s1.13-3.82,3-3.82,2.95,1.34,2.95,3.53C779.63,263.53,779.62,263.77,779.6,263.93Zm-1.21-1c0-1.4-.56-2.17-1.68-2.17-1,0-1.58.67-1.67,2.25h3.35Z" fill="#fff"/><path d="M843.51,303.48l-.71.83a2.75,2.75,0,0,0-1.81-.69c-1.41,0-2.59,1-2.59,3.78s1.13,3.76,2.58,3.76a3.14,3.14,0,0,0,2-.79l.65.83a3.66,3.66,0,0,1-2.67,1c-2.27,0-3.91-1.7-3.91-4.85s1.76-4.83,3.88-4.83A3.69,3.69,0,0,1,843.51,303.48Z" fill="#fff"/><path d="M851,306.95v5.13h-1.25v-5c0-1.07-.46-1.38-1.14-1.38a2.19,2.19,0,0,0-1.81,1.25v5.09h-1.25v-10l1.25-.14v4a2.57,2.57,0,0,1,2.12-1.15A2,2,0,0,1,851,306.95Z" fill="#fff"/><path d="M855.32,302.34a.88.88,0,1,1-.88-.86A.83.83,0,0,1,855.32,302.34Zm-1.49,9.74v-7.16h1.25v7.16Z" fill="#fff"/><path d="M863.44,306.95v5.13h-1.25v-5c0-1.07-.43-1.38-1.13-1.38a2.16,2.16,0,0,0-1.82,1.26v5.08H858v-7.16h1.07l.11,1.06a2.6,2.6,0,0,1,2.19-1.22A2,2,0,0,1,863.44,306.95Z" fill="#fff"/><path d="M871.67,308.93h-4.56c.12,1.66.9,2.29,1.93,2.29a3,3,0,0,0,1.86-.62l.54.75a3.9,3.9,0,0,1-2.5.9c-2,0-3.17-1.4-3.17-3.67s1.13-3.82,3-3.82,2.95,1.34,2.95,3.53C871.7,308.53,871.68,308.77,871.67,308.93Zm-1.21-1c0-1.4-.56-2.17-1.68-2.17-1,0-1.58.67-1.67,2.25h3.35Z" fill="#fff"/><path d="M878.47,305.57l-.54.83a3,3,0,0,0-1.85-.65c-.82,0-1.32.37-1.32.94s.38.86,1.53,1.15c1.51.38,2.38,1,2.38,2.23,0,1.49-1.37,2.17-2.83,2.17a4,4,0,0,1-2.7-.94l.69-.79a3,3,0,0,0,2,.72c.94,0,1.54-.42,1.54-1s-.35-1-1.74-1.38c-1.55-.41-2.16-1.07-2.16-2.09s1.1-2,2.58-2A3.8,3.8,0,0,1,878.47,305.57Z" fill="#fff"/><path d="M886.16,308.93H881.6c.12,1.66.9,2.29,1.93,2.29a3,3,0,0,0,1.86-.62l.54.75a3.9,3.9,0,0,1-2.5.9c-2,0-3.17-1.4-3.17-3.67s1.13-3.82,3-3.82,2.95,1.34,2.95,3.53C886.19,308.53,886.17,308.77,886.16,308.93Zm-1.21-1c0-1.4-.56-2.17-1.68-2.17-1,0-1.58.67-1.67,2.25H885Z" fill="#fff"/><path d="M961.83,264.73l-.71,2.35h-1.3l3-9.36h1.63l3,9.36h-1.36l-.71-2.35Zm1.78-5.93-1.47,4.89h2.92Z" fill="#fff"/><path d="M973,259.84l-.23,1.22a2.24,2.24,0,0,0-.62-.08c-.9,0-1.41.64-1.71,2v4.09h-1.25v-7.16h1.07l.12,1.45a2,2,0,0,1,1.91-1.62A3,3,0,0,1,973,259.84Z" fill="#fff"/><path d="M979.88,266.37l-.29.87a1.44,1.44,0,0,1-1.4-1.07,2.44,2.44,0,0,1-2.13,1.07,2.08,2.08,0,0,1-2.28-2.16c0-1.54,1.15-2.36,3.15-2.36H978v-.53c0-1-.5-1.41-1.49-1.41a6.42,6.42,0,0,0-1.93.38l-.31-.91a7,7,0,0,1,2.47-.49c1.72,0,2.51.88,2.51,2.38v3.27C979.28,266,979.51,266.24,979.88,266.37ZM978,265.19v-1.64h-.94c-1.32,0-2,.49-2,1.47a1.13,1.13,0,0,0,1.24,1.29A1.84,1.84,0,0,0,978,265.19Z" fill="#fff"/><path d="M988.12,263.49c0,2.24-1.07,3.75-2.81,3.75a2.38,2.38,0,0,1-1.9-1l-.12.79h-1.1V257l1.25-.15v3.92a2.41,2.41,0,0,1,2-1.06C987.08,259.76,988.12,261.1,988.12,263.49Zm-1.34,0c0-2-.67-2.74-1.67-2.74a2,2,0,0,0-1.67,1.11v3.42a1.93,1.93,0,0,0,1.58,1C986.06,266.25,986.78,265.45,986.78,263.49Z" fill="#fff"/><path d="M992.09,257.34a.88.88,0,1,1-.88-.86A.83.83,0,0,1,992.09,257.34Zm-1.49,9.74v-7.16h1.25v7.16Z" fill="#fff"/><path d="M999.56,260.53l-.61.82a2.26,2.26,0,0,0-1.52-.56c-1.13,0-1.83.88-1.83,2.74s.71,2.65,1.83,2.65a2.33,2.33,0,0,0,1.54-.58l.6.86a3.37,3.37,0,0,1-2.19.79c-1.93,0-3.12-1.37-3.12-3.68s1.18-3.8,3.12-3.8A3.18,3.18,0,0,1,999.56,260.53Z" fill="#fff"/><line x1="396.95" y1="288.4" x2="396.95" y2="207.56" fill="none" stroke="#fff" stroke-miterlimit="10"/><line x1="469.87" y1="244.14" x2="469.87" y2="207.56" fill="none" stroke="#fff" stroke-miterlimit="10"/><line x1="538.87" y1="288.4" x2="538.87" y2="199.88" fill="none" stroke="#fff" stroke-miterlimit="10"/><line x1="614.92" y1="241.19" x2="614.92" y2="213.4" fill="none" stroke="#fff" stroke-miterlimit="10"/><line x1="687.92" y1="288.4" x2="687.92" y2="193.13" fill="none" stroke="#fff" stroke-miterlimit="10"/><line x1="747.94" y1="241.19" x2="747.94" y2="199.88" fill="none" stroke="#fff" stroke-miterlimit="10"/><line x1="861.45" y1="288.4" x2="861.45" y2="253.73" fill="none" stroke="#fff" stroke-miterlimit="10"/><line x1="979.68" y1="241.19" x2="979.68" y2="199.88" fill="none" stroke="#fff" stroke-miterlimit="10"/><circle cx="747.94" cy="171.53" r="7.97" fill="#f0c72f"/><circle cx="747.94" cy="171.53" r="9.95" fill="none" stroke="#6f6fb0" stroke-miterlimit="10" stroke-width="3"/></g></g></svg>