<svg xmlns="http://www.w3.org/2000/svg" width="1306" height="388.05" viewBox="0 0 1306 388.05"><title>header-bars</title><g id="Layer_2" data-name="Layer 2"><g id="Layer_1-2" data-name="Layer 1"><rect x="923.22" width="382.78" height="12.75" fill="#b2b2fc" opacity="0.6"/><rect x="958.51" y="213.32" width="347.49" height="23.93" fill="#b2b2fc" opacity="0.6"/><rect y="187.25" width="191.03" height="9" fill="#b2b2fc" opacity="0.6"/><rect x="204.52" y="187.25" width="27.38" height="9" fill="#b2b2fc" opacity="0.6"/><rect x="861.48" y="373.58" width="194.55" height="14.47" fill="#b2b2fc" opacity="0.6"/><polygon points="557.56 73.15 557.56 59.73 482.47 59.73 482.47 66.97 414.13 66.97 414.13 73.15 557.56 73.15" fill="#b2b2fc" opacity="0.6"/><polygon points="586.51 49.73 586.51 71.44 620.84 71.44 620.84 64.2 689.18 64.2 689.18 49.73 586.51 49.73" fill="#b2b2fc" opacity="0.6"/><rect x="765.37" y="137.25" width="430" height="4.5" fill="#b2b2fc" opacity="0.6"/><rect x="786.82" y="124.8" width="430" height="4.5" fill="#b2b2fc" opacity="0.6"/><polygon points="589.03 301.25 589.03 317.75 300.03 317.75 300.03 343.25 589.03 343.25 752.53 343.25 752.53 317.75 752.53 301.25 589.03 301.25" fill="#b2b2fc" opacity="0.6"/><rect y="361.25" width="571.03" height="10.33" fill="#b2b2fc" opacity="0.6"/><rect x="776.37" y="90.25" width="51.33" height="76.3" fill="#b2b2fc" opacity="0.6"/><rect x="335.98" y="174.86" width="970.02" height="51.76" fill="#fff" opacity="0.45"/></g></g></svg>