<svg xmlns="http://www.w3.org/2000/svg" width="274.36" height="25.26" viewBox="0 0 274.36 25.26"><title>site-logo</title><g id="Layer_2" data-name="Layer 2"><g id="Layer_1-2" data-name="Layer 1"><rect x="0.19" width="274.17" height="24.62" fill="#feeb34"/><path d="M1,9.52H4.49v9H6.12v1.8H1v-1.8H2.53V11.31H1Zm1.2-3.83a1.25,1.25,0,0,1,.11-.52A1.39,1.39,0,0,1,3,4.44a1.31,1.31,0,0,1,.53-.11A1.25,1.25,0,0,1,4,4.44a1.4,1.4,0,0,1,.72.72,1.27,1.27,0,0,1,.11.52,1.33,1.33,0,0,1-.11.53,1.53,1.53,0,0,1-.29.44A1.32,1.32,0,0,1,4,7a1.25,1.25,0,0,1-.52.11,1.33,1.33,0,0,1-1-.41,1.53,1.53,0,0,1-.29-.44A1.31,1.31,0,0,1,2.16,5.68Z" transform="translate(-0.96)"/><path d="M15,18.54h1.53V13.6a2.58,2.58,0,0,0-.63-1.89,2.43,2.43,0,0,0-1.81-.64,3.2,3.2,0,0,0-1.37.32,6.83,6.83,0,0,0-1.31.8v6.34H13v1.8H7.91v-1.8h1.5V11.31H7.91V9.52h3.45v1.27h0a8.33,8.33,0,0,1,.74-.57,5.51,5.51,0,0,1,.82-.47,5,5,0,0,1,.89-.31,4.07,4.07,0,0,1,1-.11,4.81,4.81,0,0,1,1.57.24,3.08,3.08,0,0,1,1.19.73,3.26,3.26,0,0,1,.76,1.26,5.56,5.56,0,0,1,.27,1.81v5.18h1.5v1.8H15Z" transform="translate(-0.96)"/><path d="M25.32,9.52h2.54v1.58H25.3l0,6.25a3,3,0,0,0,.15,1,.92.92,0,0,0,.47.55,1.71,1.71,0,0,0,.73.15,3.42,3.42,0,0,0,.77-.08,3.73,3.73,0,0,0,.73-.27L28.57,20a5.33,5.33,0,0,1-1.06.41,5,5,0,0,1-1.31.15A4,4,0,0,1,25,20.43a2,2,0,0,1-.89-.58,2.61,2.61,0,0,1-.54-1.09,6.94,6.94,0,0,1-.18-1.71l0-6H21.67V9.52h1.75V6.93l1.9-.9Z" transform="translate(-0.96)"/><path d="M32,15.18a4.75,4.75,0,0,0,.07.84,4.27,4.27,0,0,0,.19.73,3,3,0,0,0,1.24,1.57,3.58,3.58,0,0,0,1.93.53,5.8,5.8,0,0,0,1.65-.24,7.91,7.91,0,0,0,1.68-.74l.78,1.33a8.51,8.51,0,0,1-2.14,1.09,7.08,7.08,0,0,1-2.24.36,5.54,5.54,0,0,1-2-.37,4.34,4.34,0,0,1-1.61-1.09,5.07,5.07,0,0,1-1.06-1.8,7.48,7.48,0,0,1-.38-2.51,7.26,7.26,0,0,1,.32-2.19,5.19,5.19,0,0,1,1-1.8,4.62,4.62,0,0,1,1.59-1.22,5.13,5.13,0,0,1,2.21-.45,5,5,0,0,1,2,.37,3.72,3.72,0,0,1,1.34,1,4.25,4.25,0,0,1,.78,1.4,8.23,8.23,0,0,1,.37,1.6c0,.27.06.53.07.8s0,.54,0,.79Zm3-4.32a3.32,3.32,0,0,0-1.19.19,2.38,2.38,0,0,0-.86.55,2.68,2.68,0,0,0-.57.88,5.25,5.25,0,0,0-.32,1.17H37.7a5.19,5.19,0,0,0-.19-1.12,2.45,2.45,0,0,0-.46-.89,2.1,2.1,0,0,0-.8-.59A3.1,3.1,0,0,0,35,10.86Z" transform="translate(-0.96)"/><path d="M50.21,11.81h-2v-.67a2.07,2.07,0,0,0-.71.13,2.2,2.2,0,0,0-.67.4,2.52,2.52,0,0,0-.55.68,3.11,3.11,0,0,0-.34,1v5.22h1.84v1.8H42.42v-1.8h1.49V11.31h-1.5V9.52h3.46V11a4.35,4.35,0,0,1,.42-.62,3,3,0,0,1,.52-.5,2.29,2.29,0,0,1,1.39-.45h1l1,0Z" transform="translate(-0.96)"/><path d="M59.58,18.54h1.53V13.6a2.58,2.58,0,0,0-.63-1.89,2.43,2.43,0,0,0-1.81-.64,3.2,3.2,0,0,0-1.37.32,6.83,6.83,0,0,0-1.31.8v6.34h1.53v1.8H52.46v-1.8H54V11.31h-1.5V9.52H55.9v1.27h0a8.33,8.33,0,0,1,.74-.57,5.51,5.51,0,0,1,.82-.47,5,5,0,0,1,.89-.31,4.07,4.07,0,0,1,1-.11,4.81,4.81,0,0,1,1.57.24,3.08,3.08,0,0,1,1.19.73,3.26,3.26,0,0,1,.76,1.26,5.56,5.56,0,0,1,.27,1.81v5.18h1.5v1.8H59.58Z" transform="translate(-0.96)"/><path d="M68.57,15.18a4.75,4.75,0,0,0,.07.84,4.27,4.27,0,0,0,.19.73,3,3,0,0,0,1.24,1.57,3.58,3.58,0,0,0,1.93.53,5.8,5.8,0,0,0,1.65-.24,7.91,7.91,0,0,0,1.68-.74l.78,1.33A8.51,8.51,0,0,1,74,20.29a7.08,7.08,0,0,1-2.24.36,5.54,5.54,0,0,1-2-.37,4.34,4.34,0,0,1-1.61-1.09A5.07,5.07,0,0,1,67,17.4a7.48,7.48,0,0,1-.38-2.51A7.26,7.26,0,0,1,67,12.7a5.19,5.19,0,0,1,1-1.8,4.62,4.62,0,0,1,1.59-1.22,5.13,5.13,0,0,1,2.21-.45,5,5,0,0,1,2,.37,3.72,3.72,0,0,1,1.34,1,4.25,4.25,0,0,1,.78,1.4,8.23,8.23,0,0,1,.37,1.6c0,.27.06.53.07.8s0,.54,0,.79Zm3-4.32a3.32,3.32,0,0,0-1.19.19,2.38,2.38,0,0,0-.86.55,2.68,2.68,0,0,0-.57.88,5.25,5.25,0,0,0-.32,1.17h5.61a5.19,5.19,0,0,0-.19-1.12,2.45,2.45,0,0,0-.46-.89,2.1,2.1,0,0,0-.8-.59A3.1,3.1,0,0,0,71.61,10.86Z" transform="translate(-0.96)"/><path d="M82.14,9.52h2.54v1.58H82.12l0,6.25a3,3,0,0,0,.15,1,.92.92,0,0,0,.47.55,1.71,1.71,0,0,0,.73.15,3.42,3.42,0,0,0,.77-.08,3.73,3.73,0,0,0,.73-.27L85.39,20a5.33,5.33,0,0,1-1.06.41A5,5,0,0,1,83,20.6a4,4,0,0,1-1.24-.17,2,2,0,0,1-.89-.58,2.61,2.61,0,0,1-.54-1.09,6.94,6.94,0,0,1-.18-1.71l0-6H78.5V9.52h1.75V6.93l1.9-.9Z" transform="translate(-0.96)"/><path d="M91.8,4.08h3.43v6.62h.06a4.41,4.41,0,0,1,.67-.55,5.41,5.41,0,0,1,.8-.44,4.74,4.74,0,0,1,.87-.29,4.16,4.16,0,0,1,.94-.1,4.81,4.81,0,0,1,1.57.24,3.07,3.07,0,0,1,1.19.73,3.26,3.26,0,0,1,.76,1.26,5.54,5.54,0,0,1,.27,1.81v5.18H104v1.8H98.84v-1.8h1.48V13.6a2.59,2.59,0,0,0-.63-1.89,2.43,2.43,0,0,0-1.81-.64,3.22,3.22,0,0,0-1.36.32,6.41,6.41,0,0,0-1.3.8v6.35h1.57v1.8H91.65v-1.8h1.63V5.88H91.8Z" transform="translate(-0.96)"/><path d="M107.64,15.18a4.75,4.75,0,0,0,.07.84,4.27,4.27,0,0,0,.19.73,3,3,0,0,0,1.24,1.57,3.58,3.58,0,0,0,1.93.53,5.8,5.8,0,0,0,1.65-.24,7.91,7.91,0,0,0,1.68-.74l.78,1.33A8.51,8.51,0,0,1,113,20.29a7.08,7.08,0,0,1-2.24.36,5.54,5.54,0,0,1-2-.37,4.34,4.34,0,0,1-1.61-1.09,5.07,5.07,0,0,1-1.06-1.8,7.48,7.48,0,0,1-.38-2.51A7.26,7.26,0,0,1,106,12.7a5.19,5.19,0,0,1,1-1.8,4.62,4.62,0,0,1,1.59-1.22,5.13,5.13,0,0,1,2.21-.45,5,5,0,0,1,2,.37,3.72,3.72,0,0,1,1.34,1A4.25,4.25,0,0,1,115,12a8.23,8.23,0,0,1,.37,1.6c0,.27.06.53.07.8s0,.54,0,.79Zm3-4.32a3.32,3.32,0,0,0-1.19.19,2.38,2.38,0,0,0-.86.55,2.68,2.68,0,0,0-.57.88,5.25,5.25,0,0,0-.32,1.17h5.61a5.19,5.19,0,0,0-.19-1.12,2.45,2.45,0,0,0-.46-.89,2.1,2.1,0,0,0-.8-.59A3.1,3.1,0,0,0,110.68,10.86Z" transform="translate(-0.96)"/><path d="M124.44,19.34a5.62,5.62,0,0,1-1.36.94,3.82,3.82,0,0,1-1.7.37,4.09,4.09,0,0,1-1.46-.25,3.56,3.56,0,0,1-1.14-.68,3.11,3.11,0,0,1-.75-1,2.87,2.87,0,0,1-.27-1.22,3.41,3.41,0,0,1,.2-1.22,3.06,3.06,0,0,1,.54-.92,3.16,3.16,0,0,1,.79-.66,4.89,4.89,0,0,1,1-.43,5.64,5.64,0,0,1,1-.23,7.65,7.65,0,0,1,1-.07q.75,0,1.26,0a8.93,8.93,0,0,1,.93.13v-.89a2.69,2.69,0,0,0-.17-1,1.85,1.85,0,0,0-.47-.7,2,2,0,0,0-.73-.41,3.09,3.09,0,0,0-.95-.14,6.28,6.28,0,0,0-.94.07,7,7,0,0,0-.84.18,5.79,5.79,0,0,0-.72.25,3.31,3.31,0,0,0-.56.3l-.64-1.35a6.93,6.93,0,0,1,.85-.47,7.08,7.08,0,0,1,1-.37,8.64,8.64,0,0,1,1-.24,6.27,6.27,0,0,1,1-.09A5.9,5.9,0,0,1,124,9.5a3.26,3.26,0,0,1,1.27.69,3.07,3.07,0,0,1,.8,1.2,4.8,4.8,0,0,1,.28,1.74v5.41h1.2v1.8h-3.15ZM121.81,19a3.27,3.27,0,0,0,.77-.09,3.87,3.87,0,0,0,.73-.26,3.83,3.83,0,0,0,.64-.38,2.9,2.9,0,0,0,.49-.44V15.4h-2.26a3.93,3.93,0,0,0-1,.13,2.51,2.51,0,0,0-.8.37,1.69,1.69,0,0,0-.53.6,1.71,1.71,0,0,0-.19.82,1.66,1.66,0,0,0,.16.75,1.45,1.45,0,0,0,.44.53,2,2,0,0,0,.68.32A3.31,3.31,0,0,0,121.81,19Z" transform="translate(-0.96)"/><path d="M129.7,4.08h3.51V18.54h1.63v1.8H129.7v-1.8h1.57V5.88H129.7Z" transform="translate(-0.96)"/><path d="M139.87,9.52h2.54v1.58h-2.56l0,6.25a3,3,0,0,0,.15,1,.92.92,0,0,0,.47.55,1.71,1.71,0,0,0,.73.15,3.42,3.42,0,0,0,.77-.08,3.73,3.73,0,0,0,.73-.27l.45,1.31a5.33,5.33,0,0,1-1.06.41,5,5,0,0,1-1.31.15,4,4,0,0,1-1.24-.17,2,2,0,0,1-.89-.58,2.61,2.61,0,0,1-.54-1.09,6.94,6.94,0,0,1-.18-1.71l0-6h-1.72V9.52H138V6.93l1.9-.9Z" transform="translate(-0.96)"/><path d="M144.85,4.08h3.43v6.62h.06a4.41,4.41,0,0,1,.67-.55,5.41,5.41,0,0,1,.8-.44,4.74,4.74,0,0,1,.87-.29,4.16,4.16,0,0,1,.94-.1,4.81,4.81,0,0,1,1.57.24,3.07,3.07,0,0,1,1.19.73,3.26,3.26,0,0,1,.76,1.26,5.54,5.54,0,0,1,.27,1.81v5.18H157v1.8h-5.14v-1.8h1.48V13.6a2.59,2.59,0,0,0-.63-1.89,2.43,2.43,0,0,0-1.81-.64,3.22,3.22,0,0,0-1.36.32,6.41,6.41,0,0,0-1.3.8v6.35h1.57v1.8H144.7v-1.8h1.63V5.88h-1.48Z" transform="translate(-0.96)"/><path d="M171.32,11.81h-2v-.67a2.07,2.07,0,0,0-.71.13,2.2,2.2,0,0,0-.67.4,2.52,2.52,0,0,0-.55.68,3.11,3.11,0,0,0-.34,1v5.22h1.84v1.8h-5.37v-1.8H165V11.31h-1.5V9.52H167V11a4.35,4.35,0,0,1,.42-.62,3,3,0,0,1,.52-.5,2.29,2.29,0,0,1,1.39-.45h1l1,0Z" transform="translate(-0.96)"/><path d="M175.4,15.18a4.75,4.75,0,0,0,.07.84,4.27,4.27,0,0,0,.19.73,3,3,0,0,0,1.24,1.57,3.58,3.58,0,0,0,1.93.53,5.8,5.8,0,0,0,1.65-.24,7.91,7.91,0,0,0,1.68-.74l.78,1.33a8.51,8.51,0,0,1-2.14,1.09,7.08,7.08,0,0,1-2.24.36,5.54,5.54,0,0,1-2-.37,4.34,4.34,0,0,1-1.61-1.09,5.07,5.07,0,0,1-1.06-1.8,7.48,7.48,0,0,1-.38-2.51,7.26,7.26,0,0,1,.32-2.19,5.19,5.19,0,0,1,1-1.8,4.62,4.62,0,0,1,1.59-1.22,5.13,5.13,0,0,1,2.21-.45,5,5,0,0,1,2,.37,3.72,3.72,0,0,1,1.34,1,4.25,4.25,0,0,1,.78,1.4,8.23,8.23,0,0,1,.37,1.6c0,.27.06.53.07.8s0,.54,0,.79Zm3-4.32a3.32,3.32,0,0,0-1.19.19,2.38,2.38,0,0,0-.86.55,2.68,2.68,0,0,0-.57.88,5.25,5.25,0,0,0-.32,1.17h5.61a5.19,5.19,0,0,0-.19-1.12,2.45,2.45,0,0,0-.46-.89,2.1,2.1,0,0,0-.8-.59A3.1,3.1,0,0,0,178.44,10.86Z" transform="translate(-0.96)"/><path d="M185.41,9.52h3.45v.9a5.93,5.93,0,0,1,1.5-.85A4.65,4.65,0,0,1,192,9.26a4.74,4.74,0,0,1,2,.4,4.46,4.46,0,0,1,1.53,1.12,5.11,5.11,0,0,1,1,1.73,6.67,6.67,0,0,1,.36,2.23,6.84,6.84,0,0,1-.4,2.38,5.5,5.5,0,0,1-1.1,1.84,5,5,0,0,1-1.68,1.2,5.22,5.22,0,0,1-2.13.43,5.69,5.69,0,0,1-1.47-.17,7.51,7.51,0,0,1-1.23-.44v3.5h1.69v1.8h-5.14v-1.8h1.48V11.31h-1.5ZM191.53,11a3.58,3.58,0,0,0-1.45.3,3.7,3.7,0,0,0-1.21.84V18a3.1,3.1,0,0,0,1,.64,4,4,0,0,0,1.6.28,3.26,3.26,0,0,0,1.29-.26,3.08,3.08,0,0,0,1.09-.78,3.88,3.88,0,0,0,.75-1.28,5.09,5.09,0,0,0,.28-1.77,4.62,4.62,0,0,0-.27-1.63,3.6,3.6,0,0,0-.72-1.2,3,3,0,0,0-1.06-.75A3.3,3.3,0,0,0,191.53,11Z" transform="translate(-0.96)"/><path d="M198.74,14.93a6.67,6.67,0,0,1,.41-2.34,5.36,5.36,0,0,1,1.12-1.81A4.91,4.91,0,0,1,202,9.61a5.7,5.7,0,0,1,2.18-.41,5.78,5.78,0,0,1,2.2.41,4.87,4.87,0,0,1,1.71,1.15,5.28,5.28,0,0,1,1.11,1.8,6.61,6.61,0,0,1,.4,2.34,6.59,6.59,0,0,1-.4,2.33,5.43,5.43,0,0,1-1.11,1.82,4.94,4.94,0,0,1-1.71,1.19,5.59,5.59,0,0,1-2.2.42,5.65,5.65,0,0,1-2.21-.42,4.92,4.92,0,0,1-1.7-1.18,5.39,5.39,0,0,1-1.11-1.81A6.7,6.7,0,0,1,198.74,14.93Zm2.06,0a5,5,0,0,0,.27,1.68,3.86,3.86,0,0,0,.73,1.28,3.29,3.29,0,0,0,1.08.81,3,3,0,0,0,1.3.29,3.21,3.21,0,0,0,1.34-.28,3.15,3.15,0,0,0,1.08-.81,3.85,3.85,0,0,0,.72-1.28,5.15,5.15,0,0,0,.26-1.69,5.39,5.39,0,0,0-.26-1.75,3.7,3.7,0,0,0-.72-1.27,2.94,2.94,0,0,0-1.08-.77,3.47,3.47,0,0,0-1.35-.26,3.27,3.27,0,0,0-1.3.26,3.07,3.07,0,0,0-1.08.77,3.66,3.66,0,0,0-.73,1.27A5.28,5.28,0,0,0,200.8,14.93Z" transform="translate(-0.96)"/><path d="M219.48,11.81h-2v-.67a2.07,2.07,0,0,0-.71.13,2.2,2.2,0,0,0-.67.4,2.52,2.52,0,0,0-.55.68,3.11,3.11,0,0,0-.34,1v5.22h1.84v1.8h-5.37v-1.8h1.49V11.31h-1.5V9.52h3.46V11a4.35,4.35,0,0,1,.42-.62,3,3,0,0,1,.52-.5,2.29,2.29,0,0,1,1.39-.45h1l1,0Z" transform="translate(-0.96)"/><path d="M224.86,9.52h2.54v1.58h-2.56l0,6.25a3,3,0,0,0,.15,1,.92.92,0,0,0,.47.55,1.71,1.71,0,0,0,.73.15,3.42,3.42,0,0,0,.77-.08,3.73,3.73,0,0,0,.73-.27l.45,1.31a5.33,5.33,0,0,1-1.06.41,5,5,0,0,1-1.31.15,4,4,0,0,1-1.24-.17,2,2,0,0,1-.89-.58,2.61,2.61,0,0,1-.54-1.09,6.94,6.94,0,0,1-.18-1.71l0-6h-1.72V9.52H223V6.93l1.9-.9Z" transform="translate(-0.96)"/><path d="M233.53,9.52h3.74v1.8h-1l2.67,7.46,2.61-7.46h-.66V9.52h3.43v1.8h-.93l-3.54,9.2h-1.92l-3.53-9.2h-.86Z" transform="translate(-0.96)"/><path d="M243.83,19.08a1.26,1.26,0,0,1,.11-.52,1.36,1.36,0,0,1,.3-.43,1.48,1.48,0,0,1,.43-.29,1.27,1.27,0,0,1,.53-.11,1.26,1.26,0,0,1,.52.11,1.41,1.41,0,0,1,.72.72,1.25,1.25,0,0,1,.11.52,1.31,1.31,0,0,1-.11.53,1.54,1.54,0,0,1-.29.44,1.34,1.34,0,0,1-.43.3,1.26,1.26,0,0,1-.52.11,1.27,1.27,0,0,1-.53-.11,1.4,1.4,0,0,1-.43-.3,1.48,1.48,0,0,1-.3-.44A1.31,1.31,0,0,1,243.83,19.08Z" transform="translate(-0.96)"/><path d="M254.44,20.53a5.81,5.81,0,0,1-2.83-.63,4.89,4.89,0,0,1-1.82-1.72,7.61,7.61,0,0,1-1-2.57,16.23,16.23,0,0,1-.29-3.17,13.78,13.78,0,0,1,.4-3.38A7.62,7.62,0,0,1,250,6.54a6.18,6.18,0,0,1,1.69-1.62,5,5,0,0,1,2.79-.67,6.51,6.51,0,0,1,2.8.53,4.52,4.52,0,0,1,1.84,1.64,7.19,7.19,0,0,1,1,2.66,17.84,17.84,0,0,1,.29,3.3,16.44,16.44,0,0,1-.29,3.19,7.53,7.53,0,0,1-1,2.59,5,5,0,0,1-1.84,1.74A5.82,5.82,0,0,1,254.44,20.53Zm0-1.86a3.51,3.51,0,0,0,2-.5,3.1,3.1,0,0,0,1.13-1.35,8.18,8.18,0,0,0,.57-2,15,15,0,0,0,.19-2.44,18.81,18.81,0,0,0-.15-2.39,6.66,6.66,0,0,0-.56-2,3.5,3.5,0,0,0-1.17-1.4,3.36,3.36,0,0,0-2-.52,3.29,3.29,0,0,0-2,.52,3.34,3.34,0,0,0-1.08,1.26,7.48,7.48,0,0,0-.56,2,16.15,16.15,0,0,0-.2,2.53,21.58,21.58,0,0,0,.13,2.44,6.38,6.38,0,0,0,.53,2,3.23,3.23,0,0,0,1.15,1.35A3.5,3.5,0,0,0,254.44,18.67Z" transform="translate(-0.96)"/><path d="M262.49,19.08a1.26,1.26,0,0,1,.11-.52,1.36,1.36,0,0,1,.3-.43,1.48,1.48,0,0,1,.43-.29,1.27,1.27,0,0,1,.53-.11,1.26,1.26,0,0,1,.52.11,1.41,1.41,0,0,1,.72.72,1.25,1.25,0,0,1,.11.52,1.31,1.31,0,0,1-.11.53,1.54,1.54,0,0,1-.29.44,1.34,1.34,0,0,1-.43.3,1.26,1.26,0,0,1-.52.11,1.27,1.27,0,0,1-.53-.11,1.4,1.4,0,0,1-.43-.3,1.48,1.48,0,0,1-.3-.44A1.31,1.31,0,0,1,262.49,19.08Z" transform="translate(-0.96)"/><path d="M268.78,18.54h1.54V7L267.11,8.7V6.52l4.41-2.47h.84V18.54h1.56v1.8h-5.13Z" transform="translate(-0.96)"/></g></g></svg>