<svg xmlns="http://www.w3.org/2000/svg" width="1200" height="630" viewBox="0 0 1200 630"><title>theinternethealthreport</title><g id="Layer_2" data-name="Layer 2"><g id="Layer_1-2" data-name="Layer 1"><rect width="1200" height="630" fill="#2dfffe"/><rect x="237.79" y="255.08" width="724.42" height="71.66" fill="#feeb34"/><path d="M250.09,303h3.68v-22.9h-4.31v4.59h-7.64V273.9h32.32v10.8h-7.69v-4.59h-4.9V303h3.75v6.42H250.09Z"/><path d="M278.12,273h10.95V287.4a10.87,10.87,0,0,1,3-2,9.08,9.08,0,0,1,3.64-.71q4.38,0,6.7,2.45t2.32,7.16V303h3.56v6.42H297.48V296a4.76,4.76,0,0,0-1-3.21,3.27,3.27,0,0,0-2.6-1.17,5.43,5.43,0,0,0-2.3.59,10.69,10.69,0,0,0-2.51,1.71V303h3.56v6.42H278.12V303h3.75V279.38h-3.75Z"/><path d="M319.37,298.81l.07.73a4.84,4.84,0,0,0,.88,1.85,5.81,5.81,0,0,0,1.46,1.34,6.52,6.52,0,0,0,1.88.81,8.22,8.22,0,0,0,2.09.27,14.9,14.9,0,0,0,2-.13,17,17,0,0,0,1.84-.35q.89-.22,1.73-.52l1.71-.62,2.58,4.8q-1.34.82-2.45,1.39a15.74,15.74,0,0,1-2.24.95,13.36,13.36,0,0,1-2.39.55,21.74,21.74,0,0,1-3,.18,14.3,14.3,0,0,1-5.62-1,11.81,11.81,0,0,1-6.69-7,14.55,14.55,0,0,1-.88-5.06,13.53,13.53,0,0,1,.93-5A12.16,12.16,0,0,1,320,285.1a13,13,0,0,1,5.2-1,12.78,12.78,0,0,1,5.07.95,10.64,10.64,0,0,1,3.74,2.63,11.73,11.73,0,0,1,2.34,3.94,15.39,15.39,0,0,1,.89,4.86q.07.59.08,1.16t0,1.18ZM325,290a7,7,0,0,0-2.24.32,4.62,4.62,0,0,0-1.56.87,4.4,4.4,0,0,0-1,1.25,7.09,7.09,0,0,0-.59,1.48h10.15a7.63,7.63,0,0,0-.47-1.5,4,4,0,0,0-.84-1.24,3.83,3.83,0,0,0-1.37-.86A5.88,5.88,0,0,0,325,290Z"/><path d="M355.09,273.9H370.3v6.42h-3.75V303h3.75v6.42H355.09V303h3.68V280.32h-3.68Z"/><path d="M395.19,295.46a4.52,4.52,0,0,0-1.08-3.2,3.72,3.72,0,0,0-2.86-1.16,6.15,6.15,0,0,0-2.46.54,6.52,6.52,0,0,0-2.41,2V303h3.94v6.42H375.22V303h3.56V291.57h-3.52v-6.42h11.06v2.13a12.39,12.39,0,0,1,3.41-1.89,11.45,11.45,0,0,1,4-.69,9,9,0,0,1,6.75,2.45q2.37,2.45,2.37,7.16V303h3.44v6.42H395.19Z"/><path d="M420.52,285.15h4.85v6.14h-4.9l0,10.27a6,6,0,0,0,.14,1.44,2.24,2.24,0,0,0,.41.88,1.34,1.34,0,0,0,.64.45,2.91,2.91,0,0,0,.87.12,6.3,6.3,0,0,0,1.57-.18q.68-.18,1.36-.41l1,4.52a11,11,0,0,1-2.66,1.2,12,12,0,0,1-3.48.45,7.65,7.65,0,0,1-2.73-.49,6.32,6.32,0,0,1-2.29-1.49,7.25,7.25,0,0,1-1.57-2.5,9.26,9.26,0,0,1-.56-3.49l.07-10.76h-3.49v-6.14h3.52l0-5.81,7.29-3.47Z"/><path d="M438.33,298.81l.07.73a4.84,4.84,0,0,0,.88,1.85,5.81,5.81,0,0,0,1.46,1.34,6.52,6.52,0,0,0,1.88.81,8.22,8.22,0,0,0,2.09.27,14.9,14.9,0,0,0,2-.13,17,17,0,0,0,1.84-.35q.89-.22,1.73-.52l1.71-.62,2.58,4.8q-1.34.82-2.45,1.39a15.74,15.74,0,0,1-2.24.95,13.36,13.36,0,0,1-2.39.55,21.74,21.74,0,0,1-3,.18,14.3,14.3,0,0,1-5.62-1,11.81,11.81,0,0,1-6.69-7,14.55,14.55,0,0,1-.88-5.06,13.53,13.53,0,0,1,.93-5,12.16,12.16,0,0,1,6.64-6.84,13,13,0,0,1,5.2-1,12.78,12.78,0,0,1,5.07.95,10.64,10.64,0,0,1,3.74,2.63,11.73,11.73,0,0,1,2.34,3.94,15.39,15.39,0,0,1,.89,4.86q.07.59.08,1.16t0,1.18Zm5.6-8.86a7,7,0,0,0-2.24.32,4.62,4.62,0,0,0-1.56.87,4.4,4.4,0,0,0-1,1.25,7.09,7.09,0,0,0-.59,1.48h10.15a7.63,7.63,0,0,0-.47-1.5,4,4,0,0,0-.84-1.24,3.83,3.83,0,0,0-1.37-.86A5.88,5.88,0,0,0,443.93,290Z"/><path d="M483.78,294h-6.59v-2.51a11,11,0,0,0-1.76.13A4.72,4.72,0,0,0,474,292a2.92,2.92,0,0,0-1,.84,3.26,3.26,0,0,0-.57,1.34V303h4.95v6.42H461.56V303h3.63V291.57H461.6v-6.42h10.8v1.71a7.77,7.77,0,0,1,2.32-1.27,8.56,8.56,0,0,1,2.81-.45l3.19,0,3,0Z"/><path d="M509.65,295.46a4.52,4.52,0,0,0-1.08-3.2,3.72,3.72,0,0,0-2.86-1.16,6.15,6.15,0,0,0-2.46.54,6.52,6.52,0,0,0-2.41,2V303h3.94v6.42H489.68V303h3.56V291.57h-3.52v-6.42h11.06v2.13a12.39,12.39,0,0,1,3.41-1.89,11.45,11.45,0,0,1,4-.69,9,9,0,0,1,6.75,2.45q2.37,2.45,2.37,7.16V303h3.45v6.42H509.65Z"/><path d="M532.12,298.81l.07.73a4.84,4.84,0,0,0,.88,1.85,5.81,5.81,0,0,0,1.46,1.34,6.52,6.52,0,0,0,1.88.81,8.22,8.22,0,0,0,2.09.27,14.9,14.9,0,0,0,2-.13,17,17,0,0,0,1.84-.35q.89-.22,1.73-.52l1.71-.62,2.58,4.8q-1.34.82-2.45,1.39a15.74,15.74,0,0,1-2.24.95,13.36,13.36,0,0,1-2.39.55,21.74,21.74,0,0,1-3,.18,14.3,14.3,0,0,1-5.62-1,11.81,11.81,0,0,1-6.69-7,14.55,14.55,0,0,1-.88-5.06,13.53,13.53,0,0,1,.93-5,12.16,12.16,0,0,1,6.64-6.84,13,13,0,0,1,5.2-1A12.78,12.78,0,0,1,543,285a10.64,10.64,0,0,1,3.74,2.63,11.73,11.73,0,0,1,2.34,3.94,15.39,15.39,0,0,1,.89,4.86q.07.59.08,1.16t0,1.18Zm5.6-8.86a7,7,0,0,0-2.24.32,4.62,4.62,0,0,0-1.56.87,4.4,4.4,0,0,0-1,1.25,7.09,7.09,0,0,0-.59,1.48h10.15a7.63,7.63,0,0,0-.47-1.5,4,4,0,0,0-.84-1.24,3.83,3.83,0,0,0-1.37-.86A5.88,5.88,0,0,0,537.72,290Z"/><path d="M564.7,285.15h4.85v6.14h-4.9l0,10.27a6,6,0,0,0,.14,1.44,2.24,2.24,0,0,0,.41.88,1.34,1.34,0,0,0,.64.45,2.91,2.91,0,0,0,.87.12,6.3,6.3,0,0,0,1.57-.18q.68-.18,1.36-.41l1,4.52a11,11,0,0,1-2.66,1.2,12,12,0,0,1-3.48.45,7.65,7.65,0,0,1-2.73-.49,6.32,6.32,0,0,1-2.29-1.49,7.25,7.25,0,0,1-1.57-2.5,9.26,9.26,0,0,1-.56-3.49l.07-10.76h-3.49v-6.14h3.52l0-5.81,7.29-3.47Z"/><path d="M612.3,273.9h15.23v6.45h-3.75V303h3.75v6.42H612.3V303H616v-9.09H600V303h3.75v6.42H588.51V303h3.68V280.34h-3.68V273.9h15.21v6.45H600v7.38h16v-7.38h-3.7Z"/><path d="M640.26,298.81l.07.73a4.84,4.84,0,0,0,.88,1.85,5.81,5.81,0,0,0,1.46,1.34,6.52,6.52,0,0,0,1.88.81,8.22,8.22,0,0,0,2.09.27,14.9,14.9,0,0,0,2-.13,17,17,0,0,0,1.84-.35q.89-.22,1.73-.52l1.71-.62,2.58,4.8q-1.34.82-2.45,1.39a15.74,15.74,0,0,1-2.24.95,13.36,13.36,0,0,1-2.39.55,21.74,21.74,0,0,1-3,.18,14.3,14.3,0,0,1-5.62-1,11.81,11.81,0,0,1-6.69-7,14.55,14.55,0,0,1-.88-5.06,13.53,13.53,0,0,1,.93-5,12.16,12.16,0,0,1,6.64-6.84,13,13,0,0,1,5.2-1,12.78,12.78,0,0,1,5.07.95,10.64,10.64,0,0,1,3.74,2.63,11.73,11.73,0,0,1,2.34,3.94,15.39,15.39,0,0,1,.89,4.86q.07.59.08,1.16t0,1.18Zm5.6-8.86a7,7,0,0,0-2.24.32,4.62,4.62,0,0,0-1.56.87,4.4,4.4,0,0,0-1,1.25,7.09,7.09,0,0,0-.59,1.48h10.15a7.63,7.63,0,0,0-.47-1.5,4,4,0,0,0-.84-1.24,3.83,3.83,0,0,0-1.37-.86A5.88,5.88,0,0,0,645.86,290Z"/><path d="M678.6,308.12q-.82.52-1.5.88a8.5,8.5,0,0,1-1.36.59,8.37,8.37,0,0,1-1.41.33,11.13,11.13,0,0,1-1.59.11,11.87,11.87,0,0,1-3.9-.6,8.6,8.6,0,0,1-2.91-1.64,7.11,7.11,0,0,1-1.82-2.46,7.84,7.84,0,0,1,0-6.2,6.8,6.8,0,0,1,1.86-2.45,8.86,8.86,0,0,1,3-1.59,13.09,13.09,0,0,1,4-.57,24,24,0,0,1,3,.18q1.37.18,2.54.43v-.75a3.35,3.35,0,0,0-.35-1.58,3,3,0,0,0-1-1.1,4.35,4.35,0,0,0-1.52-.63,8.91,8.91,0,0,0-1.95-.2,15.56,15.56,0,0,0-3.88.43,14.74,14.74,0,0,0-3.22,1.25L664.44,288a19.89,19.89,0,0,1,5-2.51,17.49,17.49,0,0,1,5.54-.87,16.65,16.65,0,0,1,4.21.5,8.53,8.53,0,0,1,3.32,1.64,7.68,7.68,0,0,1,2.17,3,11.27,11.27,0,0,1,.79,4.45V303h3.26v6.42H678.6Zm-5.34-3.63a8.14,8.14,0,0,0,3-.54,8.91,8.91,0,0,0,2.32-1.31v-3.09H673a3.46,3.46,0,0,0-1.05.16,3.13,3.13,0,0,0-.93.47,2.33,2.33,0,0,0-.66.75,2.1,2.1,0,0,0-.25,1,2.36,2.36,0,0,0,.79,1.8A3.4,3.4,0,0,0,673.25,304.48Z"/><path d="M695.1,273H706v30h3.75v6.42H695.1V303h3.75V279.38H695.1Z"/><path d="M725,285.15h4.85v6.14h-4.9l0,10.27A6,6,0,0,0,725,303a2.24,2.24,0,0,0,.41.88,1.34,1.34,0,0,0,.64.45,2.91,2.91,0,0,0,.87.12,6.3,6.3,0,0,0,1.57-.18q.68-.18,1.36-.41l1,4.52a11,11,0,0,1-2.66,1.2,12,12,0,0,1-3.48.45,7.65,7.65,0,0,1-2.73-.49A6.32,6.32,0,0,1,719.7,308a7.25,7.25,0,0,1-1.57-2.5,9.26,9.26,0,0,1-.56-3.49l.07-10.76h-3.49v-6.14h3.52l0-5.81,7.29-3.47Z"/><path d="M735.92,273h10.95V287.4a10.87,10.87,0,0,1,3-2,9.08,9.08,0,0,1,3.64-.71q4.38,0,6.7,2.45t2.32,7.16V303h3.56v6.42H755.28V296a4.76,4.76,0,0,0-1-3.21,3.27,3.27,0,0,0-2.6-1.17,5.43,5.43,0,0,0-2.3.59,10.69,10.69,0,0,0-2.51,1.71V303h3.56v6.42H735.92V303h3.75V279.38h-3.75Z"/><path d="M783.17,273.9H802a13.7,13.7,0,0,1,4.9.82,11,11,0,0,1,3.63,2.19,9.49,9.49,0,0,1,3,7,11.61,11.61,0,0,1-.39,3.16,8,8,0,0,1-1.12,2.41,8.21,8.21,0,0,1-1.82,1.86,14.32,14.32,0,0,1-2.46,1.46,6,6,0,0,1,2.11,1.86,9,9,0,0,1,1.38,3.25l1.2,4.62h2.93l0,6.91H805.1L803.7,301a11.29,11.29,0,0,0-.64-2.59,4.93,4.93,0,0,0-1.16-1.78,4.47,4.47,0,0,0-1.77-1,8.28,8.28,0,0,0-2.47-.33h-3V303h3.26v6.42H783.17V303h3.68V280.34h-3.68Zm11.46,6.45v8.6h4.66a10.72,10.72,0,0,0,2.4-.25,5.25,5.25,0,0,0,1.83-.77,3.59,3.59,0,0,0,1.17-1.32,4.1,4.1,0,0,0,.41-1.9,3.84,3.84,0,0,0-1.48-3.21,7,7,0,0,0-4.34-1.15Z"/><path d="M826.48,298.81l.07.73a4.84,4.84,0,0,0,.88,1.85,5.81,5.81,0,0,0,1.46,1.34,6.52,6.52,0,0,0,1.88.81,8.22,8.22,0,0,0,2.09.27,14.9,14.9,0,0,0,2-.13,17,17,0,0,0,1.84-.35q.89-.22,1.73-.52l1.71-.62,2.58,4.8q-1.34.82-2.45,1.39a15.74,15.74,0,0,1-2.24.95,13.36,13.36,0,0,1-2.39.55,21.74,21.74,0,0,1-3,.18,14.3,14.3,0,0,1-5.62-1,11.81,11.81,0,0,1-6.69-7,14.55,14.55,0,0,1-.88-5.06,13.53,13.53,0,0,1,.93-5,12.16,12.16,0,0,1,6.64-6.84,13,13,0,0,1,5.2-1,12.78,12.78,0,0,1,5.07.95,10.64,10.64,0,0,1,3.74,2.63,11.73,11.73,0,0,1,2.34,3.94,15.39,15.39,0,0,1,.89,4.86q.07.59.08,1.16t0,1.18Zm5.6-8.86a7,7,0,0,0-2.24.32,4.62,4.62,0,0,0-1.56.87,4.4,4.4,0,0,0-1,1.25,7.09,7.09,0,0,0-.59,1.48h10.15a7.63,7.63,0,0,0-.47-1.5,4,4,0,0,0-.84-1.24,3.83,3.83,0,0,0-1.37-.86A5.88,5.88,0,0,0,832.08,290Z"/><path d="M850.8,285.15H861.4v.35a14.49,14.49,0,0,1,2.3-.79,9.92,9.92,0,0,1,2.41-.29,12.23,12.23,0,0,1,5,1,12.44,12.44,0,0,1,6.62,6.8,12.87,12.87,0,0,1,.95,4.92,13.22,13.22,0,0,1-.93,4.95,12.33,12.33,0,0,1-2.59,4,12.14,12.14,0,0,1-4,2.72,12.61,12.61,0,0,1-5.05,1,13.45,13.45,0,0,1-2.88-.29,14,14,0,0,1-2.58-.83V314h4.64v6.42H849.44V314h4V291.57H850.8Zm14.79,5.74a5.28,5.28,0,0,0-2.77.77,6.6,6.6,0,0,0-2.18,2.18v6.84a5.8,5.8,0,0,0,2,1.95,5.67,5.67,0,0,0,2.91.75,5.77,5.77,0,0,0,2.27-.46,5.59,5.59,0,0,0,1.88-1.29,6.27,6.27,0,0,0,1.27-2,6.42,6.42,0,0,0,.47-2.47,7.24,7.24,0,0,0-.46-2.65,5.76,5.76,0,0,0-1.25-2,5.46,5.46,0,0,0-1.87-1.24A6.1,6.1,0,0,0,865.59,290.89Z"/><path d="M883.68,297.2a12.86,12.86,0,0,1,1-5,12.41,12.41,0,0,1,6.75-6.8,14,14,0,0,1,10.42,0,12.55,12.55,0,0,1,4.09,2.74,12.39,12.39,0,0,1,2.66,4.05,13,13,0,0,1,.95,5,13.37,13.37,0,0,1-.93,5,12.15,12.15,0,0,1-6.7,6.83,14.42,14.42,0,0,1-10.59,0,12.07,12.07,0,0,1-6.68-6.81A13.44,13.44,0,0,1,883.68,297.2Zm7,0a6.73,6.73,0,0,0,.47,2.54,6.24,6.24,0,0,0,1.28,2,5.81,5.81,0,0,0,1.88,1.31,5.62,5.62,0,0,0,2.29.47,5.8,5.8,0,0,0,2.31-.46,5.41,5.41,0,0,0,1.85-1.3,6.13,6.13,0,0,0,1.23-2,7.11,7.11,0,0,0,.45-2.57,7.34,7.34,0,0,0-.45-2.62,5.84,5.84,0,0,0-1.23-2,5.29,5.29,0,0,0-1.85-1.25,5.78,5.78,0,0,0-2.31-.41,5.71,5.71,0,0,0-2.29.41,5.53,5.53,0,0,0-1.87,1.25,5.94,5.94,0,0,0-1.28,2A7,7,0,0,0,890.69,297.2Z"/><path d="M937,294h-6.59v-2.51a11,11,0,0,0-1.76.13,4.72,4.72,0,0,0-1.39.43,2.92,2.92,0,0,0-1,.84,3.26,3.26,0,0,0-.57,1.34V303h4.95v6.42H914.78V303h3.63V291.57h-3.59v-6.42h10.8v1.71a7.77,7.77,0,0,1,2.32-1.27,8.56,8.56,0,0,1,2.81-.45l3.19,0,3,0Z"/><path d="M952.07,285.15h4.85v6.14H952l0,10.27a6,6,0,0,0,.14,1.44,2.24,2.24,0,0,0,.41.88,1.34,1.34,0,0,0,.64.45,2.91,2.91,0,0,0,.87.12,6.3,6.3,0,0,0,1.57-.18q.68-.18,1.36-.41l1,4.52a11,11,0,0,1-2.66,1.2,12,12,0,0,1-3.48.45,7.65,7.65,0,0,1-2.73-.49,6.32,6.32,0,0,1-2.29-1.49,7.25,7.25,0,0,1-1.57-2.5,9.26,9.26,0,0,1-.56-3.49l.07-10.76h-3.49v-6.14h3.52l0-5.81,7.29-3.47Z"/><path d="M290.79,355.21,288,342.51l-2.82,12.7h-2.62L279.48,340h2L284,353.38,286.9,340h2.22l3,13.33L294.64,340h1.91l-3.08,15.16Z"/><path d="M308.24,346.89v8.32h-2v-8c0-1.74-.75-2.24-1.85-2.24a3.55,3.55,0,0,0-2.93,2v8.25h-2V339l2-.22v6.47a4.16,4.16,0,0,1,3.43-1.87A3.19,3.19,0,0,1,308.24,346.89Z"/><path d="M321.31,354.06l-.46,1.41a2.34,2.34,0,0,1-2.27-1.74,4,4,0,0,1-3.45,1.74,3.37,3.37,0,0,1-3.7-3.5c0-2.49,1.87-3.83,5.1-3.83h1.78v-.86c0-1.67-.81-2.29-2.42-2.29a10.4,10.4,0,0,0-3.12.62l-.51-1.47a11.35,11.35,0,0,1,4-.79c2.79,0,4.07,1.43,4.07,3.85v5.3C320.34,353.51,320.71,353.84,321.31,354.06Zm-3-1.91v-2.66H316.8c-2.13,0-3.21.79-3.21,2.38a1.83,1.83,0,0,0,2,2.09A3,3,0,0,0,318.31,352.15Z"/><path d="M328,355.47c-2,0-3.12-1.14-3.12-3.3v-7h-2v-1.56h2V341l2-.24v2.86h2.75l-.22,1.56h-2.53v6.91c0,1.17.37,1.72,1.39,1.72a2.84,2.84,0,0,0,1.54-.51l.77,1.39A4.42,4.42,0,0,1,328,355.47Z"/><path d="M334.83,340a2.88,2.88,0,0,1-.37,1.28L333,344.42h-1.32l.88-3.3A1.35,1.35,0,0,1,332,340a1.42,1.42,0,0,1,1.43-1.39A1.4,1.4,0,0,1,334.83,340Z"/><path d="M345.2,344.67l-.88,1.34a4.87,4.87,0,0,0-3-1.06c-1.32,0-2.13.59-2.13,1.52s.62,1.39,2.49,1.87c2.44.62,3.85,1.58,3.85,3.61,0,2.42-2.22,3.52-4.58,3.52a6.42,6.42,0,0,1-4.38-1.52l1.12-1.28a4.84,4.84,0,0,0,3.21,1.17c1.52,0,2.49-.68,2.49-1.69,0-1.21-.57-1.65-2.82-2.24-2.51-.66-3.5-1.74-3.5-3.39,0-1.83,1.78-3.17,4.18-3.17A6.16,6.16,0,0,1,345.2,344.67Z"/><path d="M363.48,346.89v8.32h-2v-8c0-1.74-.75-2.24-1.85-2.24a3.55,3.55,0,0,0-2.93,2v8.25h-2V339l2-.22v6.47a4.16,4.16,0,0,1,3.43-1.87A3.19,3.19,0,0,1,363.48,346.89Z"/><path d="M376.48,350.1h-7.39c.2,2.68,1.45,3.72,3.12,3.72a4.88,4.88,0,0,0,3-1l.88,1.21a6.32,6.32,0,0,1-4,1.45c-3.23,0-5.13-2.27-5.13-5.94s1.83-6.18,4.82-6.18,4.77,2.18,4.77,5.72C376.53,349.46,376.5,349.84,376.48,350.1Zm-2-1.63c0-2.27-.9-3.52-2.73-3.52-1.54,0-2.55,1.08-2.71,3.65h5.43Z"/><path d="M382.73,353.8a2,2,0,0,0,.75-.13l.53,1.41a3.93,3.93,0,0,1-1.72.4c-1.47,0-2.31-.88-2.31-2.55v-14l2-.24v14.17C382,353.49,382.2,353.8,382.73,353.8Z"/><path d="M396.37,349.4c0,3.52-1.56,6.07-4.55,6.07a3.74,3.74,0,0,1-3-1.32v5.5l-2,.24V343.61h1.74l.15,1.56a4.22,4.22,0,0,1,3.43-1.83C395.16,343.35,396.37,345.74,396.37,349.4Zm-2.18,0c0-3-.88-4.44-2.62-4.44a3.53,3.53,0,0,0-2.79,1.8v5.65a3,3,0,0,0,2.55,1.41C393.18,353.82,394.19,352.43,394.19,349.4Z"/><path d="M402.46,339.43A1.42,1.42,0,1,1,401,338,1.35,1.35,0,0,1,402.46,339.43ZM400,355.21v-11.6h2v11.6Z"/><path d="M415.29,346.89v8.32h-2v-8c0-1.74-.7-2.24-1.83-2.24-1.3,0-2.18.81-2.95,2v8.23h-2v-11.6h1.74l.18,1.72a4.21,4.21,0,0,1,3.54-2C414.06,343.35,415.29,344.69,415.29,346.89Z"/><path d="M425.54,344.49a3.05,3.05,0,0,1,2,2.93c0,2.29-1.65,3.94-4.42,3.94a4.68,4.68,0,0,1-1.47-.22,1.4,1.4,0,0,0-.57,1.08c0,.53.33.95,1.52.95h1.85c2.38,0,4,1.36,4,3.21,0,2.24-1.85,3.52-5.43,3.52-3.78,0-5-1.17-5-3.52h1.83c0,1.32.59,1.94,3.15,1.94s3.39-.64,3.39-1.8-.88-1.65-2.33-1.65h-1.83c-2.07,0-3-1-3-2.2a2.52,2.52,0,0,1,1.28-2,3.32,3.32,0,0,1-2-3.21c0-2.38,1.91-4,4.47-4a10,10,0,0,0,5.3-1l.59,1.83A11.31,11.31,0,0,1,425.54,344.49Zm-4.91,2.9a2.35,2.35,0,0,0,2.44,2.62c1.58,0,2.44-1,2.44-2.64A2.25,2.25,0,0,0,423,344.8,2.32,2.32,0,0,0,420.63,347.39Z"/><path d="M438.19,347.5a15.55,15.55,0,0,0,3.26,10l-1.28.88c-2.16-3.06-4.09-5.68-4.09-10.89s1.94-7.83,4.09-10.89l1.28.88A15.5,15.5,0,0,0,438.19,347.5Z"/><path d="M453.42,354.06l-.46,1.41a2.34,2.34,0,0,1-2.27-1.74,4,4,0,0,1-3.45,1.74,3.37,3.37,0,0,1-3.7-3.5c0-2.49,1.87-3.83,5.1-3.83h1.78v-.86c0-1.67-.81-2.29-2.42-2.29a10.4,10.4,0,0,0-3.12.62l-.51-1.47a11.35,11.35,0,0,1,4-.79c2.79,0,4.07,1.43,4.07,3.85v5.3C452.45,353.51,452.82,353.84,453.42,354.06Zm-3-1.91v-2.66h-1.52c-2.13,0-3.21.79-3.21,2.38a1.83,1.83,0,0,0,2,2.09A3,3,0,0,0,450.42,352.15Z"/><path d="M465.65,346.89v8.32h-2v-8c0-1.74-.7-2.24-1.83-2.24-1.3,0-2.18.81-2.95,2v8.23h-2v-11.6h1.74l.18,1.72a4.21,4.21,0,0,1,3.54-2C464.42,343.35,465.65,344.69,465.65,346.89Z"/><path d="M478.91,355.21h-1.78l-.2-1.61a3.88,3.88,0,0,1-3.34,1.87c-2.82,0-4.38-2.4-4.38-6s1.72-6.12,4.55-6.12a4.16,4.16,0,0,1,3.12,1.43V338.7l2,.24Zm-2-3.06v-5.68a3.33,3.33,0,0,0-2.68-1.52c-1.74,0-2.82,1.45-2.82,4.47s1,4.44,2.64,4.44A3.32,3.32,0,0,0,476.89,352.15Z"/><path d="M497.22,355.21l-2-9.77-2.09,9.77h-2.68l-2.71-11.6h2l2.09,10.19,2.29-10.19h2.27l2.18,10.19,2.11-10.19h1.94L500,355.21Z"/><path d="M514.18,346.89v8.32h-2v-8c0-1.74-.75-2.24-1.85-2.24a3.55,3.55,0,0,0-2.93,2v8.25h-2V339l2-.22v6.47a4.16,4.16,0,0,1,3.43-1.87A3.19,3.19,0,0,1,514.18,346.89Z"/><path d="M527.25,354.06l-.46,1.41a2.34,2.34,0,0,1-2.27-1.74,4,4,0,0,1-3.45,1.74,3.37,3.37,0,0,1-3.7-3.5c0-2.49,1.87-3.83,5.1-3.83h1.78v-.86c0-1.67-.81-2.29-2.42-2.29a10.4,10.4,0,0,0-3.12.62l-.51-1.47a11.35,11.35,0,0,1,4-.79c2.79,0,4.07,1.43,4.07,3.85v5.3C526.28,353.51,526.65,353.84,527.25,354.06Zm-3-1.91v-2.66h-1.52c-2.13,0-3.21.79-3.21,2.38a1.83,1.83,0,0,0,2,2.09A3,3,0,0,0,524.25,352.15Z"/><path d="M533.91,355.47c-2,0-3.12-1.14-3.12-3.3v-7h-2v-1.56h2V341l2-.24v2.86h2.75l-.22,1.56h-2.53v6.91c0,1.17.37,1.72,1.39,1.72a2.84,2.84,0,0,0,1.54-.51l.77,1.39A4.42,4.42,0,0,1,533.91,355.47Z"/><path d="M540.78,340a2.88,2.88,0,0,1-.37,1.28l-1.47,3.12h-1.32l.88-3.3a1.35,1.35,0,0,1-.57-1.1,1.43,1.43,0,0,1,2.86,0Z"/><path d="M551.14,344.67l-.88,1.34a4.87,4.87,0,0,0-3-1.06c-1.32,0-2.13.59-2.13,1.52s.62,1.39,2.49,1.87c2.44.62,3.85,1.58,3.85,3.61,0,2.42-2.22,3.52-4.58,3.52a6.42,6.42,0,0,1-4.38-1.52l1.12-1.28a4.84,4.84,0,0,0,3.21,1.17c1.52,0,2.49-.68,2.49-1.69,0-1.21-.57-1.65-2.82-2.24-2.51-.66-3.5-1.74-3.5-3.39,0-1.83,1.78-3.17,4.18-3.17A6.16,6.16,0,0,1,551.14,344.67Z"/><path d="M569.42,346.89v8.32h-2v-8c0-1.74-.75-2.24-1.85-2.24a3.55,3.55,0,0,0-2.93,2v8.25h-2V339l2-.22v6.47a4.16,4.16,0,0,1,3.43-1.87A3.19,3.19,0,0,1,569.42,346.89Z"/><path d="M580.6,355.21l-.15-1.8a3.89,3.89,0,0,1-3.61,2.07c-2,0-3.23-1.28-3.23-3.54v-8.32h2v8.1c0,1.58.53,2.18,1.78,2.18a3.49,3.49,0,0,0,2.9-2v-8.27h2v11.6Z"/><path d="M592.92,343.48l-.37,2a3.64,3.64,0,0,0-1-.13c-1.45,0-2.29,1-2.77,3.26v6.62h-2v-11.6h1.74l.2,2.35c.62-1.74,1.69-2.62,3.1-2.62A4.89,4.89,0,0,1,592.92,343.48Z"/><path d="M598.92,355.47c-2,0-3.12-1.14-3.12-3.3v-7h-2v-1.56h2V341l2-.24v2.86h2.75l-.22,1.56h-2.53v6.91c0,1.17.37,1.72,1.39,1.72a2.84,2.84,0,0,0,1.54-.51l.77,1.39A4.42,4.42,0,0,1,598.92,355.47Z"/><path d="M606.25,339.43a1.42,1.42,0,1,1-1.43-1.39A1.35,1.35,0,0,1,606.25,339.43Zm-2.42,15.78v-11.6h2v11.6Z"/><path d="M619.07,346.89v8.32h-2v-8c0-1.74-.7-2.24-1.83-2.24-1.3,0-2.18.81-2.95,2v8.23h-2v-11.6H612l.18,1.72a4.21,4.21,0,0,1,3.54-2C617.84,343.35,619.07,344.69,619.07,346.89Z"/><path d="M629.33,344.49a3.05,3.05,0,0,1,2,2.93c0,2.29-1.65,3.94-4.42,3.94a4.68,4.68,0,0,1-1.47-.22,1.4,1.4,0,0,0-.57,1.08c0,.53.33.95,1.52.95h1.85c2.38,0,4,1.36,4,3.21,0,2.24-1.85,3.52-5.43,3.52-3.79,0-5-1.17-5-3.52h1.83c0,1.32.59,1.94,3.15,1.94s3.39-.64,3.39-1.8-.88-1.65-2.33-1.65H626c-2.07,0-3-1-3-2.2a2.52,2.52,0,0,1,1.28-2,3.32,3.32,0,0,1-2-3.21c0-2.38,1.92-4,4.47-4a10,10,0,0,0,5.3-1l.59,1.83A11.31,11.31,0,0,1,629.33,344.49Zm-4.91,2.9a2.35,2.35,0,0,0,2.44,2.62c1.58,0,2.44-1,2.44-2.64a2.25,2.25,0,0,0-2.49-2.58A2.32,2.32,0,0,0,624.42,347.39Z"/><path d="M639.18,347.5c0,5.21-1.94,7.83-4.09,10.89l-1.28-.88a17,17,0,0,0,0-20l1.28-.88C637.25,339.67,639.18,342.29,639.18,347.5Z"/><path d="M657.93,349.4c0,3.59-1.89,6.07-5.17,6.07s-5.17-2.38-5.17-6.05,1.89-6.07,5.19-6.07S657.93,345.72,657.93,349.4Zm-8.16,0c0,3,1.06,4.42,3,4.42s3-1.41,3-4.45-1.06-4.42-3-4.42S649.76,346.38,649.76,349.42Z"/><path d="M668.38,355.21l-.15-1.8a3.89,3.89,0,0,1-3.61,2.07c-2,0-3.23-1.28-3.23-3.54v-8.32h2v8.1c0,1.58.53,2.18,1.78,2.18a3.49,3.49,0,0,0,2.9-2v-8.27h2v11.6Z"/><path d="M680.7,343.48l-.37,2a3.65,3.65,0,0,0-1-.13c-1.45,0-2.29,1-2.77,3.26v6.62h-2v-11.6h1.74l.2,2.35c.62-1.74,1.69-2.62,3.1-2.62A4.89,4.89,0,0,1,680.7,343.48Z"/><path d="M691.92,353.8a2,2,0,0,0,.75-.13l.53,1.41a3.92,3.92,0,0,1-1.72.4c-1.47,0-2.31-.88-2.31-2.55v-14l2-.24v14.17C691.19,353.49,691.39,353.8,691.92,353.8Z"/><path d="M704.72,354.06l-.46,1.41a2.34,2.34,0,0,1-2.27-1.74,4,4,0,0,1-3.46,1.74,3.37,3.37,0,0,1-3.7-3.5c0-2.49,1.87-3.83,5.1-3.83h1.78v-.86c0-1.67-.81-2.29-2.42-2.29a10.4,10.4,0,0,0-3.12.62l-.51-1.47a11.35,11.35,0,0,1,4-.79c2.79,0,4.07,1.43,4.07,3.85v5.3C703.75,353.51,704.13,353.84,704.72,354.06Zm-3-1.91v-2.66h-1.52c-2.13,0-3.21.79-3.21,2.38a1.83,1.83,0,0,0,2,2.09A3,3,0,0,0,701.73,352.15Z"/><path d="M714.31,343.48l-.37,2a3.65,3.65,0,0,0-1-.13c-1.45,0-2.29,1-2.77,3.26v6.62h-2v-11.6h1.74l.2,2.35c.62-1.74,1.69-2.62,3.1-2.62A4.89,4.89,0,0,1,714.31,343.48Z"/><path d="M722.8,344.49a3.06,3.06,0,0,1,2,2.93c0,2.29-1.65,3.94-4.42,3.94a4.69,4.69,0,0,1-1.47-.22,1.4,1.4,0,0,0-.57,1.08c0,.53.33.95,1.52.95h1.85c2.38,0,4,1.36,4,3.21,0,2.24-1.85,3.52-5.44,3.52-3.78,0-5-1.17-5-3.52h1.83c0,1.32.59,1.94,3.15,1.94s3.39-.64,3.39-1.8-.88-1.65-2.33-1.65H719.5c-2.07,0-3-1-3-2.2a2.52,2.52,0,0,1,1.28-2,3.32,3.32,0,0,1-2-3.21c0-2.38,1.91-4,4.47-4a10,10,0,0,0,5.3-1l.59,1.83A11.31,11.31,0,0,1,722.8,344.49Zm-4.91,2.9a2.35,2.35,0,0,0,2.44,2.62c1.58,0,2.44-1,2.44-2.64a2.25,2.25,0,0,0-2.49-2.58A2.32,2.32,0,0,0,717.9,347.39Z"/><path d="M736.88,350.1h-7.39c.2,2.68,1.45,3.72,3.13,3.72a4.88,4.88,0,0,0,3-1l.88,1.21a6.32,6.32,0,0,1-4,1.45c-3.23,0-5.13-2.27-5.13-5.94s1.83-6.18,4.82-6.18,4.77,2.18,4.77,5.72C736.93,349.46,736.91,349.84,736.88,350.1Zm-2-1.63c0-2.27-.9-3.52-2.73-3.52-1.54,0-2.55,1.08-2.71,3.65h5.44Z"/><path d="M747.58,344.67,746.7,346a4.87,4.87,0,0,0-3-1.06c-1.32,0-2.13.59-2.13,1.52s.62,1.39,2.49,1.87c2.44.62,3.85,1.58,3.85,3.61,0,2.42-2.22,3.52-4.58,3.52A6.43,6.43,0,0,1,739,354l1.12-1.28a4.84,4.84,0,0,0,3.21,1.17c1.52,0,2.49-.68,2.49-1.69,0-1.21-.57-1.65-2.82-2.24-2.51-.66-3.5-1.74-3.5-3.39,0-1.83,1.78-3.17,4.18-3.17A6.16,6.16,0,0,1,747.58,344.67Z"/><path d="M754.24,355.47c-2,0-3.12-1.14-3.12-3.3v-7h-2v-1.56h2V341l2-.24v2.86h2.75l-.22,1.56h-2.53v6.91c0,1.17.37,1.72,1.39,1.72a2.84,2.84,0,0,0,1.54-.51l.77,1.39A4.42,4.42,0,0,1,754.24,355.47Z"/><path d="M771.16,344.49a3.06,3.06,0,0,1,2,2.93c0,2.29-1.65,3.94-4.42,3.94a4.69,4.69,0,0,1-1.47-.22,1.4,1.4,0,0,0-.57,1.08c0,.53.33.95,1.52.95h1.85c2.38,0,4,1.36,4,3.21,0,2.24-1.85,3.52-5.44,3.52-3.78,0-5-1.17-5-3.52h1.83c0,1.32.59,1.94,3.15,1.94s3.39-.64,3.39-1.8-.88-1.65-2.33-1.65h-1.83c-2.07,0-3-1-3-2.2a2.52,2.52,0,0,1,1.28-2,3.32,3.32,0,0,1-2-3.21c0-2.38,1.91-4,4.47-4a10,10,0,0,0,5.3-1l.59,1.83A11.31,11.31,0,0,1,771.16,344.49Zm-4.91,2.9a2.35,2.35,0,0,0,2.44,2.62c1.58,0,2.44-1,2.44-2.64a2.25,2.25,0,0,0-2.49-2.58A2.32,2.32,0,0,0,766.25,347.39Z"/><path d="M779.5,353.8a2,2,0,0,0,.75-.13l.53,1.41a3.92,3.92,0,0,1-1.72.4c-1.47,0-2.31-.88-2.31-2.55v-14l2-.24v14.17C778.77,353.49,779,353.8,779.5,353.8Z"/><path d="M792.81,349.4c0,3.59-1.89,6.07-5.17,6.07s-5.17-2.38-5.17-6.05,1.89-6.07,5.19-6.07S792.81,345.72,792.81,349.4Zm-8.16,0c0,3,1.06,4.42,3,4.42s3-1.41,3-4.45-1.06-4.42-3-4.42S784.64,346.38,784.64,349.42Z"/><path d="M806,349.4c0,3.63-1.74,6.07-4.55,6.07a3.86,3.86,0,0,1-3.08-1.54l-.2,1.28h-1.78V338.95l2-.24v6.36a3.91,3.91,0,0,1,3.28-1.72C804.29,343.35,806,345.52,806,349.4Zm-2.18,0c0-3.3-1.08-4.44-2.71-4.44a3.29,3.29,0,0,0-2.71,1.8v5.54a3.12,3.12,0,0,0,2.55,1.56C802.64,353.86,803.81,352.57,803.81,349.4Z"/><path d="M818.44,354.06l-.46,1.41a2.34,2.34,0,0,1-2.27-1.74,4,4,0,0,1-3.46,1.74,3.37,3.37,0,0,1-3.7-3.5c0-2.49,1.87-3.83,5.1-3.83h1.78v-.86c0-1.67-.81-2.29-2.42-2.29a10.4,10.4,0,0,0-3.12.62l-.51-1.47a11.35,11.35,0,0,1,4-.79c2.79,0,4.07,1.43,4.07,3.85v5.3C817.47,353.51,817.84,353.84,818.44,354.06Zm-3-1.91v-2.66h-1.52c-2.13,0-3.21.79-3.21,2.38a1.83,1.83,0,0,0,2,2.09A3,3,0,0,0,815.44,352.15Z"/><path d="M824.48,353.8a2,2,0,0,0,.75-.13l.53,1.41a3.92,3.92,0,0,1-1.72.4c-1.47,0-2.31-.88-2.31-2.55v-14l2-.24v14.17C823.76,353.49,824,353.8,824.48,353.8Z"/><path d="M840.74,343.48l-.37,2a3.65,3.65,0,0,0-1-.13c-1.45,0-2.29,1-2.77,3.26v6.62h-2v-11.6h1.74l.2,2.35c.62-1.74,1.69-2.62,3.1-2.62A4.89,4.89,0,0,1,840.74,343.48Z"/><path d="M851.77,350.1h-7.39c.2,2.68,1.45,3.72,3.13,3.72a4.88,4.88,0,0,0,3-1l.88,1.21a6.32,6.32,0,0,1-4,1.45c-3.23,0-5.13-2.27-5.13-5.94s1.83-6.18,4.82-6.18,4.77,2.18,4.77,5.72C851.81,349.46,851.79,349.84,851.77,350.1Zm-2-1.63c0-2.27-.9-3.52-2.73-3.52-1.54,0-2.55,1.08-2.71,3.65h5.44Z"/><path d="M862.46,344.67l-.88,1.34a4.87,4.87,0,0,0-3-1.06c-1.32,0-2.13.59-2.13,1.52s.62,1.39,2.49,1.87c2.44.62,3.85,1.58,3.85,3.61,0,2.42-2.22,3.52-4.58,3.52a6.43,6.43,0,0,1-4.38-1.52l1.12-1.28a4.84,4.84,0,0,0,3.21,1.17c1.52,0,2.49-.68,2.49-1.69,0-1.21-.57-1.65-2.82-2.24-2.51-.66-3.5-1.74-3.5-3.39,0-1.83,1.78-3.17,4.18-3.17A6.16,6.16,0,0,1,862.46,344.67Z"/><path d="M875.37,349.4c0,3.59-1.89,6.07-5.17,6.07s-5.17-2.38-5.17-6.05,1.89-6.07,5.19-6.07S875.37,345.72,875.37,349.4Zm-8.16,0c0,3,1.06,4.42,3,4.42s3-1.41,3-4.45-1.06-4.42-3-4.42S867.21,346.38,867.21,349.42Z"/><path d="M885.82,355.21l-.15-1.8a3.89,3.89,0,0,1-3.61,2.07c-2,0-3.23-1.28-3.23-3.54v-8.32h2v8.1c0,1.58.53,2.18,1.78,2.18a3.49,3.49,0,0,0,2.9-2v-8.27h2v11.6Z"/><path d="M898.14,343.48l-.37,2a3.65,3.65,0,0,0-1-.13c-1.45,0-2.29,1-2.77,3.26v6.62h-2v-11.6h1.74l.2,2.35c.62-1.74,1.69-2.62,3.1-2.62A4.89,4.89,0,0,1,898.14,343.48Z"/><path d="M908.22,344.6l-1,1.32a3.67,3.67,0,0,0-2.46-.9c-1.83,0-3,1.43-3,4.44s1.14,4.29,3,4.29a3.79,3.79,0,0,0,2.49-.95l1,1.39a5.47,5.47,0,0,1-3.54,1.28c-3.12,0-5.06-2.22-5.06-6s1.91-6.16,5.06-6.16A5.15,5.15,0,0,1,908.22,344.6Z"/><path d="M919.68,350.1h-7.39c.2,2.68,1.45,3.72,3.13,3.72a4.88,4.88,0,0,0,3-1l.88,1.21a6.32,6.32,0,0,1-4,1.45c-3.23,0-5.13-2.27-5.13-5.94s1.83-6.18,4.82-6.18,4.77,2.18,4.77,5.72C919.72,349.46,919.7,349.84,919.68,350.1Zm-2-1.63c0-2.27-.9-3.52-2.73-3.52-1.54,0-2.55,1.08-2.71,3.65h5.44Z"/><rect x="37.68" y="29.32" width="82.97" height="24.62"/><path d="M58.27,42.59a4.64,4.64,0,0,0-1.12-3.36A4.25,4.25,0,0,0,54,38.08a4.9,4.9,0,0,0-1.16.14,5.55,5.55,0,0,0-1.08.38,6,6,0,0,0-1,.58,5.17,5.17,0,0,0-.82.74,3.33,3.33,0,0,0-1.45-1.39,5,5,0,0,0-2.22-.45,5.11,5.11,0,0,0-1.81.33,5.7,5.7,0,0,0-1.58.89v-1H37.7v3h1.66v5.34H37.68v3h7.05v-3H42.91V42.26A3,3,0,0,1,44,41.33a2.72,2.72,0,0,1,1.13-.24,2.06,2.06,0,0,1,.76.16,1.82,1.82,0,0,1,.6.41,1.87,1.87,0,0,1,.39.63,2.31,2.31,0,0,1,.14.83v6.53h5.18v-3H50.6v-4c0-.08,0-.17,0-.25a3.49,3.49,0,0,1,1.08-1,2.41,2.41,0,0,1,1.16-.29,1.78,1.78,0,0,1,1.38.55,2.16,2.16,0,0,1,.5,1.51v6.5h5.18v-3H58.27Z" fill="#feeb34"/><path d="M71.24,39.72a5.87,5.87,0,0,0-1.91-1.28,6.53,6.53,0,0,0-4.87,0,5.8,5.8,0,0,0-3.15,3.17,6,6,0,0,0-.45,2.32,6.27,6.27,0,0,0,.43,2.34,5.64,5.64,0,0,0,3.12,3.18,6.73,6.73,0,0,0,4.95,0,5.67,5.67,0,0,0,3.13-3.19,6.27,6.27,0,0,0,.43-2.33,6.06,6.06,0,0,0-.44-2.32A5.79,5.79,0,0,0,71.24,39.72Zm-1.83,5.41a2.88,2.88,0,0,1-.57.94,2.52,2.52,0,0,1-.86.61,2.71,2.71,0,0,1-1.08.21,2.62,2.62,0,0,1-1.07-.22,2.71,2.71,0,0,1-.88-.61,2.91,2.91,0,0,1-.6-.94,3.14,3.14,0,0,1-.22-1.19,3.28,3.28,0,0,1,.22-1.23,2.78,2.78,0,0,1,.6-.93,2.58,2.58,0,0,1,.88-.59A2.67,2.67,0,0,1,66.89,41a2.7,2.7,0,0,1,1.08.19,2.47,2.47,0,0,1,.86.59,2.73,2.73,0,0,1,.57.93,3.44,3.44,0,0,1,.21,1.23A3.33,3.33,0,0,1,69.41,45.13Z" fill="#feeb34"/><polygon points="81.89 46.71 79.37 46.71 84.31 40.28 84.31 38.31 74.37 38.31 74.37 42.93 77.22 42.93 77.22 41.22 79.42 41.22 74.73 47.85 74.73 49.65 84.76 49.65 84.76 44.54 81.89 44.54 81.89 46.71" fill="#feeb34"/><path d="M102.47,33.55a.67.67,0,0,0-.55-.29H99.44a.67.67,0,0,0-.63.44l-5.65,15a.67.67,0,0,0,.63.91h2.53a.67.67,0,0,0,.63-.44l5.59-15A.67.67,0,0,0,102.47,33.55Z" fill="#feeb34"/><path d="M109.42,33.55a.67.67,0,0,0-.55-.29h-2.47a.67.67,0,0,0-.63.44l-5.65,15a.67.67,0,0,0,.63.91h2.53a.67.67,0,0,0,.63-.44l5.59-15A.67.67,0,0,0,109.42,33.55Z" fill="#feeb34"/><path d="M119.13,46.65V42.52a5.27,5.27,0,0,0-.37-2.08,3.61,3.61,0,0,0-1-1.39,4,4,0,0,0-1.55-.77,7.8,7.8,0,0,0-2-.24,8.18,8.18,0,0,0-2.59.4,9.28,9.28,0,0,0-2.34,1.17l1.05,2.12a6.92,6.92,0,0,1,1.51-.59,7.28,7.28,0,0,1,1.81-.2,4.17,4.17,0,0,1,.91.09,2,2,0,0,1,.71.3,1.42,1.42,0,0,1,.46.51,1.57,1.57,0,0,1,.16.74V43q-.55-.12-1.19-.2a11.16,11.16,0,0,0-1.42-.08,6.11,6.11,0,0,0-1.89.27,4.13,4.13,0,0,0-1.39.74,3.18,3.18,0,0,0-.87,1.14,3.67,3.67,0,0,0,0,2.9,3.34,3.34,0,0,0,.85,1.15,4,4,0,0,0,1.36.77,5.55,5.55,0,0,0,1.82.28,5.22,5.22,0,0,0,.74,0,3.86,3.86,0,0,0,1.29-.43q.32-.17.7-.41v.61h4.73v-3Zm-3.21-.17a4.19,4.19,0,0,1-1.08.61,3.81,3.81,0,0,1-1.41.25,1.59,1.59,0,0,1-1.11-.34,1.1,1.1,0,0,1-.37-.84,1,1,0,0,1,.11-.48,1.1,1.1,0,0,1,.31-.35,1.48,1.48,0,0,1,.43-.22,1.6,1.6,0,0,1,.49-.08h2.63Z" fill="#feeb34"/><rect x="86.97" y="38.31" width="4.23" height="4.23" rx="0.49" ry="0.49" fill="#feeb34"/><rect x="86.97" y="45.42" width="4.23" height="4.23" rx="0.49" ry="0.49" fill="#feeb34"/><rect x="37.7" y="58.24" width="274.17" height="24.62" fill="#feeb34"/><path d="M37.51,67.76H41v9h1.63v1.8H37.54v-1.8h1.55V69.56H37.51Zm1.2-3.83a1.25,1.25,0,0,1,.11-.52,1.39,1.39,0,0,1,.73-.72,1.31,1.31,0,0,1,.53-.11,1.25,1.25,0,0,1,.52.11,1.4,1.4,0,0,1,.72.72,1.27,1.27,0,0,1,.11.52,1.33,1.33,0,0,1-.11.53,1.53,1.53,0,0,1-.29.44,1.32,1.32,0,0,1-.43.3,1.25,1.25,0,0,1-.52.11,1.33,1.33,0,0,1-1-.41,1.53,1.53,0,0,1-.29-.44A1.31,1.31,0,0,1,38.72,63.93Z"/><path d="M51.59,76.79h1.53V71.85A2.58,2.58,0,0,0,52.48,70a2.43,2.43,0,0,0-1.81-.64,3.2,3.2,0,0,0-1.37.32,6.83,6.83,0,0,0-1.31.8v6.34h1.53v1.8H44.46v-1.8H46V69.56h-1.5v-1.8h3.45V69h0a8.33,8.33,0,0,1,.74-.57,5.51,5.51,0,0,1,.82-.47,5,5,0,0,1,.89-.31,4.07,4.07,0,0,1,1-.11,4.81,4.81,0,0,1,1.57.24,3.08,3.08,0,0,1,1.19.73,3.26,3.26,0,0,1,.76,1.26,5.56,5.56,0,0,1,.27,1.81v5.18h1.5v1.8H51.59Z"/><path d="M61.87,67.76h2.54v1.58H61.85l0,6.25a3,3,0,0,0,.15,1,.92.92,0,0,0,.47.55,1.71,1.71,0,0,0,.73.15,3.42,3.42,0,0,0,.77-.08,3.73,3.73,0,0,0,.73-.27l.45,1.31a5.33,5.33,0,0,1-1.06.41,5,5,0,0,1-1.31.15,4,4,0,0,1-1.24-.17,2,2,0,0,1-.89-.58A2.61,2.61,0,0,1,60.1,77a6.94,6.94,0,0,1-.18-1.71l0-6H58.23V67.76H60V65.17l1.9-.9Z"/><path d="M68.54,73.42a4.75,4.75,0,0,0,.07.84,4.27,4.27,0,0,0,.19.73A3,3,0,0,0,70,76.56a3.58,3.58,0,0,0,1.93.53,5.8,5.8,0,0,0,1.65-.24,7.91,7.91,0,0,0,1.68-.74l.78,1.33a8.51,8.51,0,0,1-2.14,1.09,7.08,7.08,0,0,1-2.24.36,5.54,5.54,0,0,1-2-.37,4.34,4.34,0,0,1-1.61-1.09A5.07,5.07,0,0,1,67,75.64a7.48,7.48,0,0,1-.38-2.51,7.26,7.26,0,0,1,.32-2.19,5.19,5.19,0,0,1,1-1.8,4.62,4.62,0,0,1,1.59-1.22,5.13,5.13,0,0,1,2.21-.45,5,5,0,0,1,2,.37,3.72,3.72,0,0,1,1.34,1,4.25,4.25,0,0,1,.78,1.4,8.23,8.23,0,0,1,.37,1.6c0,.27.06.53.07.8s0,.54,0,.79Zm3-4.32a3.32,3.32,0,0,0-1.19.19,2.38,2.38,0,0,0-.86.55,2.68,2.68,0,0,0-.57.88,5.25,5.25,0,0,0-.32,1.17h5.61a5.19,5.19,0,0,0-.19-1.12,2.45,2.45,0,0,0-.46-.89,2.1,2.1,0,0,0-.8-.59A3.1,3.1,0,0,0,71.58,69.11Z"/><path d="M86.76,70h-2v-.67a2.07,2.07,0,0,0-.71.13,2.2,2.2,0,0,0-.67.4,2.52,2.52,0,0,0-.55.68,3.11,3.11,0,0,0-.34,1v5.22h1.84v1.8H79v-1.8h1.49V69.56H79v-1.8h3.46v1.49a4.35,4.35,0,0,1,.42-.62,3,3,0,0,1,.52-.5,2.29,2.29,0,0,1,1.39-.45h1l1,0Z"/><path d="M96.13,76.79h1.53V71.85A2.58,2.58,0,0,0,97,70a2.43,2.43,0,0,0-1.81-.64,3.2,3.2,0,0,0-1.37.32,6.83,6.83,0,0,0-1.31.8v6.34h1.53v1.8H89v-1.8h1.5V69.56H89v-1.8h3.45V69h0a8.33,8.33,0,0,1,.74-.57A5.51,5.51,0,0,1,94,68a5,5,0,0,1,.89-.31,4.07,4.07,0,0,1,1-.11,4.81,4.81,0,0,1,1.57.24,3.08,3.08,0,0,1,1.19.73,3.26,3.26,0,0,1,.76,1.26,5.56,5.56,0,0,1,.27,1.81v5.18h1.5v1.8H96.13Z"/><path d="M105.12,73.42a4.75,4.75,0,0,0,.07.84,4.27,4.27,0,0,0,.19.73,3,3,0,0,0,1.24,1.57,3.58,3.58,0,0,0,1.93.53,5.8,5.8,0,0,0,1.65-.24,7.91,7.91,0,0,0,1.68-.74l.78,1.33a8.51,8.51,0,0,1-2.14,1.09,7.08,7.08,0,0,1-2.24.36,5.54,5.54,0,0,1-2-.37,4.34,4.34,0,0,1-1.61-1.09,5.07,5.07,0,0,1-1.06-1.8,7.48,7.48,0,0,1-.38-2.51,7.26,7.26,0,0,1,.32-2.19,5.19,5.19,0,0,1,1-1.8,4.62,4.62,0,0,1,1.59-1.22,5.13,5.13,0,0,1,2.21-.45,5,5,0,0,1,2,.37,3.72,3.72,0,0,1,1.34,1,4.25,4.25,0,0,1,.78,1.4,8.23,8.23,0,0,1,.37,1.6c0,.27.06.53.07.8s0,.54,0,.79Zm3-4.32a3.32,3.32,0,0,0-1.19.19,2.38,2.38,0,0,0-.86.55,2.68,2.68,0,0,0-.57.88,5.25,5.25,0,0,0-.32,1.17h5.61a5.19,5.19,0,0,0-.19-1.12,2.45,2.45,0,0,0-.46-.89,2.1,2.1,0,0,0-.8-.59A3.1,3.1,0,0,0,108.16,69.11Z"/><path d="M118.7,67.76h2.54v1.58h-2.56l0,6.25a3,3,0,0,0,.15,1,.92.92,0,0,0,.47.55,1.71,1.71,0,0,0,.73.15,3.42,3.42,0,0,0,.77-.08,3.73,3.73,0,0,0,.73-.27l.45,1.31a5.33,5.33,0,0,1-1.06.41,5,5,0,0,1-1.31.15,4,4,0,0,1-1.24-.17,2,2,0,0,1-.89-.58,2.61,2.61,0,0,1-.54-1.09,6.94,6.94,0,0,1-.18-1.71l0-6H115V67.76h1.75V65.17l1.9-.9Z"/><path d="M128.35,62.33h3.43V69h.06a4.41,4.41,0,0,1,.67-.55,5.41,5.41,0,0,1,.8-.44,4.74,4.74,0,0,1,.87-.29,4.16,4.16,0,0,1,.94-.1,4.81,4.81,0,0,1,1.57.24,3.07,3.07,0,0,1,1.19.73,3.26,3.26,0,0,1,.76,1.26,5.54,5.54,0,0,1,.27,1.81v5.18h1.63v1.8h-5.14v-1.8h1.48V71.85a2.59,2.59,0,0,0-.63-1.89,2.43,2.43,0,0,0-1.81-.64,3.22,3.22,0,0,0-1.36.32,6.41,6.41,0,0,0-1.3.8v6.35h1.57v1.8H128.2v-1.8h1.63V64.12h-1.48Z"/><path d="M144.19,73.42a4.75,4.75,0,0,0,.07.84,4.27,4.27,0,0,0,.19.73,3,3,0,0,0,1.24,1.57,3.58,3.58,0,0,0,1.93.53,5.8,5.8,0,0,0,1.65-.24,7.91,7.91,0,0,0,1.68-.74l.78,1.33a8.51,8.51,0,0,1-2.14,1.09,7.08,7.08,0,0,1-2.24.36,5.54,5.54,0,0,1-2-.37,4.34,4.34,0,0,1-1.61-1.09,5.07,5.07,0,0,1-1.06-1.8,7.48,7.48,0,0,1-.38-2.51,7.26,7.26,0,0,1,.32-2.19,5.19,5.19,0,0,1,1-1.8,4.62,4.62,0,0,1,1.59-1.22,5.13,5.13,0,0,1,2.21-.45,5,5,0,0,1,2,.37,3.72,3.72,0,0,1,1.34,1,4.25,4.25,0,0,1,.78,1.4,8.23,8.23,0,0,1,.37,1.6c0,.27.06.53.07.8s0,.54,0,.79Zm3-4.32a3.32,3.32,0,0,0-1.19.19,2.38,2.38,0,0,0-.86.55,2.68,2.68,0,0,0-.57.88,5.25,5.25,0,0,0-.32,1.17h5.61a5.19,5.19,0,0,0-.19-1.12,2.45,2.45,0,0,0-.46-.89,2.1,2.1,0,0,0-.8-.59A3.1,3.1,0,0,0,147.23,69.11Z"/><path d="M161,77.58a5.62,5.62,0,0,1-1.36.94,3.82,3.82,0,0,1-1.7.37,4.09,4.09,0,0,1-1.46-.25,3.56,3.56,0,0,1-1.14-.68,3.11,3.11,0,0,1-.75-1,2.87,2.87,0,0,1-.27-1.22,3.41,3.41,0,0,1,.2-1.22,3.06,3.06,0,0,1,.54-.92,3.16,3.16,0,0,1,.79-.66,4.89,4.89,0,0,1,1-.43,5.64,5.64,0,0,1,1-.23,7.65,7.65,0,0,1,1-.07q.75,0,1.26,0a8.93,8.93,0,0,1,.93.13v-.89a2.69,2.69,0,0,0-.17-1,1.85,1.85,0,0,0-.47-.7,2,2,0,0,0-.73-.41,3.09,3.09,0,0,0-.95-.14,6.28,6.28,0,0,0-.94.07,7,7,0,0,0-.84.18,5.79,5.79,0,0,0-.72.25,3.31,3.31,0,0,0-.56.3L155,68.68a6.93,6.93,0,0,1,.85-.47,7.08,7.08,0,0,1,1-.37,8.64,8.64,0,0,1,1-.24,6.27,6.27,0,0,1,1-.09,5.9,5.9,0,0,1,1.69.23,3.26,3.26,0,0,1,1.27.69,3.07,3.07,0,0,1,.8,1.2,4.8,4.8,0,0,1,.28,1.74v5.41h1.2v1.8H161Zm-2.63-.32a3.27,3.27,0,0,0,.77-.09,3.87,3.87,0,0,0,.73-.26,3.83,3.83,0,0,0,.64-.38,2.9,2.9,0,0,0,.49-.44V73.64h-2.26a3.93,3.93,0,0,0-1,.13,2.51,2.51,0,0,0-.8.37,1.69,1.69,0,0,0-.53.6,1.71,1.71,0,0,0-.19.82,1.66,1.66,0,0,0,.16.75,1.45,1.45,0,0,0,.44.53,2,2,0,0,0,.68.32A3.31,3.31,0,0,0,158.36,77.26Z"/><path d="M166.25,62.33h3.51V76.79h1.63v1.8h-5.14v-1.8h1.57V64.12h-1.57Z"/><path d="M176.43,67.76H179v1.58h-2.56l0,6.25a3,3,0,0,0,.15,1,.92.92,0,0,0,.47.55,1.71,1.71,0,0,0,.73.15,3.42,3.42,0,0,0,.77-.08,3.73,3.73,0,0,0,.73-.27l.45,1.31a5.33,5.33,0,0,1-1.06.41,5,5,0,0,1-1.31.15,4,4,0,0,1-1.24-.17,2,2,0,0,1-.89-.58,2.61,2.61,0,0,1-.54-1.09,6.94,6.94,0,0,1-.18-1.71l0-6h-1.72V67.76h1.75V65.17l1.9-.9Z"/><path d="M181.4,62.33h3.43V69h.06a4.41,4.41,0,0,1,.67-.55,5.41,5.41,0,0,1,.8-.44,4.74,4.74,0,0,1,.87-.29,4.16,4.16,0,0,1,.94-.1,4.81,4.81,0,0,1,1.57.24,3.07,3.07,0,0,1,1.19.73,3.26,3.26,0,0,1,.76,1.26,5.54,5.54,0,0,1,.27,1.81v5.18h1.63v1.8h-5.14v-1.8h1.48V71.85a2.59,2.59,0,0,0-.63-1.89,2.43,2.43,0,0,0-1.81-.64,3.22,3.22,0,0,0-1.36.32,6.41,6.41,0,0,0-1.3.8v6.35h1.57v1.8h-5.14v-1.8h1.63V64.12H181.4Z"/><path d="M207.87,70h-2v-.67a2.07,2.07,0,0,0-.71.13,2.2,2.2,0,0,0-.67.4,2.52,2.52,0,0,0-.55.68,3.11,3.11,0,0,0-.34,1v5.22h1.84v1.8h-5.37v-1.8h1.49V69.56h-1.5v-1.8h3.46v1.49a4.35,4.35,0,0,1,.42-.62,3,3,0,0,1,.52-.5,2.29,2.29,0,0,1,1.39-.45h1l1,0Z"/><path d="M212,73.42a4.75,4.75,0,0,0,.07.84,4.27,4.27,0,0,0,.19.73,3,3,0,0,0,1.24,1.57,3.58,3.58,0,0,0,1.93.53,5.8,5.8,0,0,0,1.65-.24,7.91,7.91,0,0,0,1.68-.74l.78,1.33a8.51,8.51,0,0,1-2.14,1.09,7.08,7.08,0,0,1-2.24.36,5.54,5.54,0,0,1-2-.37,4.34,4.34,0,0,1-1.61-1.09,5.07,5.07,0,0,1-1.06-1.8,7.48,7.48,0,0,1-.38-2.51,7.26,7.26,0,0,1,.32-2.19,5.19,5.19,0,0,1,1-1.8,4.62,4.62,0,0,1,1.59-1.22,5.13,5.13,0,0,1,2.21-.45,5,5,0,0,1,2,.37,3.72,3.72,0,0,1,1.34,1,4.25,4.25,0,0,1,.78,1.4,8.23,8.23,0,0,1,.37,1.6c0,.27.06.53.07.8s0,.54,0,.79Zm3-4.32a3.32,3.32,0,0,0-1.19.19,2.38,2.38,0,0,0-.86.55,2.68,2.68,0,0,0-.57.88,5.25,5.25,0,0,0-.32,1.17h5.61a5.19,5.19,0,0,0-.19-1.12,2.45,2.45,0,0,0-.46-.89,2.1,2.1,0,0,0-.8-.59A3.1,3.1,0,0,0,215,69.11Z"/><path d="M222,67.76h3.45v.9a5.93,5.93,0,0,1,1.5-.85,4.65,4.65,0,0,1,1.68-.31,4.74,4.74,0,0,1,2,.4A4.46,4.46,0,0,1,232.08,69a5.11,5.11,0,0,1,1,1.73,6.67,6.67,0,0,1,.36,2.23,6.84,6.84,0,0,1-.4,2.38,5.5,5.5,0,0,1-1.1,1.84,5,5,0,0,1-1.68,1.2,5.22,5.22,0,0,1-2.13.43,5.69,5.69,0,0,1-1.47-.17,7.51,7.51,0,0,1-1.23-.44v3.5h1.69v1.8H222v-1.8h1.48V69.56H222Zm6.12,1.45a3.58,3.58,0,0,0-1.45.3,3.7,3.7,0,0,0-1.21.84v5.86a3.1,3.1,0,0,0,1,.64,4,4,0,0,0,1.6.28,3.26,3.26,0,0,0,1.29-.26,3.08,3.08,0,0,0,1.09-.78,3.88,3.88,0,0,0,.75-1.28,5.09,5.09,0,0,0,.28-1.77,4.62,4.62,0,0,0-.27-1.63,3.6,3.6,0,0,0-.72-1.2,3,3,0,0,0-1.06-.75A3.3,3.3,0,0,0,228.09,69.21Z"/><path d="M235.3,73.17a6.67,6.67,0,0,1,.41-2.34A5.36,5.36,0,0,1,236.83,69a4.91,4.91,0,0,1,1.71-1.17,5.7,5.7,0,0,1,2.18-.41,5.78,5.78,0,0,1,2.2.41A4.87,4.87,0,0,1,244.64,69a5.28,5.28,0,0,1,1.11,1.8,7,7,0,0,1,0,4.67,5.43,5.43,0,0,1-1.11,1.82,4.94,4.94,0,0,1-1.71,1.19,5.59,5.59,0,0,1-2.2.42,5.65,5.65,0,0,1-2.21-.42,4.92,4.92,0,0,1-1.7-1.18,5.39,5.39,0,0,1-1.11-1.81A6.7,6.7,0,0,1,235.3,73.17Zm2.06,0a5,5,0,0,0,.27,1.68,3.86,3.86,0,0,0,.73,1.28,3.29,3.29,0,0,0,1.08.81,3,3,0,0,0,1.3.29,3.21,3.21,0,0,0,1.34-.28,3.15,3.15,0,0,0,1.08-.81,3.85,3.85,0,0,0,.72-1.28,5.15,5.15,0,0,0,.26-1.69,5.39,5.39,0,0,0-.26-1.75,3.7,3.7,0,0,0-.72-1.27,2.94,2.94,0,0,0-1.08-.77,3.47,3.47,0,0,0-1.35-.26,3.27,3.27,0,0,0-1.3.26,3.07,3.07,0,0,0-1.08.77,3.66,3.66,0,0,0-.73,1.27A5.28,5.28,0,0,0,237.36,73.17Z"/><path d="M256,70h-2v-.67a2.07,2.07,0,0,0-.71.13,2.2,2.2,0,0,0-.67.4,2.52,2.52,0,0,0-.55.68,3.11,3.11,0,0,0-.34,1v5.22h1.84v1.8h-5.37v-1.8h1.49V69.56h-1.5v-1.8h3.46v1.49a4.35,4.35,0,0,1,.42-.62,3,3,0,0,1,.52-.5,2.29,2.29,0,0,1,1.39-.45h1l1,0Z"/><path d="M261.41,67.76h2.54v1.58h-2.56l0,6.25a3,3,0,0,0,.15,1,.92.92,0,0,0,.47.55,1.71,1.71,0,0,0,.73.15,3.42,3.42,0,0,0,.77-.08,3.73,3.73,0,0,0,.73-.27l.45,1.31a5.33,5.33,0,0,1-1.06.41,5,5,0,0,1-1.31.15,4,4,0,0,1-1.24-.17,2,2,0,0,1-.89-.58,2.61,2.61,0,0,1-.54-1.09,6.94,6.94,0,0,1-.18-1.71l0-6h-1.72V67.76h1.75V65.17l1.9-.9Z"/><path d="M270.08,67.76h3.74v1.8h-1L275.49,77l2.61-7.46h-.66v-1.8h3.43v1.8h-.93l-3.54,9.2h-1.92l-3.53-9.2h-.86Z"/><path d="M280.39,77.32a1.26,1.26,0,0,1,.11-.52,1.36,1.36,0,0,1,.3-.43,1.48,1.48,0,0,1,.43-.29,1.27,1.27,0,0,1,.53-.11,1.26,1.26,0,0,1,.52.11,1.41,1.41,0,0,1,.72.72,1.25,1.25,0,0,1,.11.52,1.31,1.31,0,0,1-.11.53,1.54,1.54,0,0,1-.29.44,1.34,1.34,0,0,1-.43.3,1.26,1.26,0,0,1-.52.11,1.27,1.27,0,0,1-.53-.11,1.4,1.4,0,0,1-.43-.3,1.48,1.48,0,0,1-.3-.44A1.31,1.31,0,0,1,280.39,77.32Z"/><path d="M291,78.77a5.81,5.81,0,0,1-2.83-.63,4.89,4.89,0,0,1-1.82-1.72,7.61,7.61,0,0,1-1-2.57,16.23,16.23,0,0,1-.29-3.17,13.78,13.78,0,0,1,.4-3.38,7.62,7.62,0,0,1,1.07-2.52,6.18,6.18,0,0,1,1.69-1.62,5,5,0,0,1,2.79-.67,6.51,6.51,0,0,1,2.8.53,4.52,4.52,0,0,1,1.84,1.64,7.19,7.19,0,0,1,1,2.66,17.84,17.84,0,0,1,.29,3.3,16.44,16.44,0,0,1-.29,3.19,7.53,7.53,0,0,1-1,2.59,5,5,0,0,1-1.84,1.74A5.82,5.82,0,0,1,291,78.77Zm0-1.86a3.51,3.51,0,0,0,2-.5,3.1,3.1,0,0,0,1.13-1.35,8.18,8.18,0,0,0,.57-2,15,15,0,0,0,.19-2.44,18.81,18.81,0,0,0-.15-2.39,6.66,6.66,0,0,0-.56-2,3.5,3.5,0,0,0-1.17-1.4,3.36,3.36,0,0,0-2-.52,3.29,3.29,0,0,0-2,.52A3.34,3.34,0,0,0,288,66.07a7.48,7.48,0,0,0-.56,2,16.15,16.15,0,0,0-.2,2.53,21.58,21.58,0,0,0,.13,2.44,6.38,6.38,0,0,0,.53,2A3.23,3.23,0,0,0,289,76.42,3.5,3.5,0,0,0,291,76.91Z"/><path d="M299,77.32a1.26,1.26,0,0,1,.11-.52,1.36,1.36,0,0,1,.3-.43,1.48,1.48,0,0,1,.43-.29,1.27,1.27,0,0,1,.53-.11,1.26,1.26,0,0,1,.52.11,1.41,1.41,0,0,1,.72.72,1.25,1.25,0,0,1,.11.52,1.31,1.31,0,0,1-.11.53,1.54,1.54,0,0,1-.29.44,1.34,1.34,0,0,1-.43.3,1.26,1.26,0,0,1-.52.11,1.27,1.27,0,0,1-.53-.11,1.4,1.4,0,0,1-.43-.3,1.48,1.48,0,0,1-.3-.44A1.31,1.31,0,0,1,299,77.32Z"/><path d="M305.34,76.79h1.54V65.2l-3.21,1.74V64.76l4.41-2.47h.84V76.79h1.56v1.8h-5.13Z"/></g></g></svg>